<?xml version="1.0" standalone="no"?>
<!DOCTYPE svg PUBLIC "-//W3C//DTD SVG 1.1//EN" "http://www.w3.org/Graphics/SVG/1.1/DTD/svg11.dtd" >
<svg>
<metadata>
Created by FontForge 20090914 at Wed May 30 09:48:40 2018
 By www-data
Copyright (c) 2016, root
</metadata>
<defs>
<font id="CarolinaValtuille" horiz-adv-x="262" >
  <font-face 
    font-family="Carolina Valtuille"
    font-weight="400"
    font-stretch="normal"
    units-per-em="1000"
    panose-1="2 0 5 3 0 0 0 0 0 0"
    ascent="800"
    descent="-200"
    x-height="397.002"
    cap-height="616.003"
    bbox="28.8681 -190.75 560.007 800.003"
    underline-thickness="50"
    underline-position="-100"
    unicode-range="U+0020-U+00FC"
  />
<missing-glyph horiz-adv-x="364" 
d="M33 0v666h265v-666h-265zM66 33h199v600h-199v-600z" />
    <glyph glyph-name=".notdef" horiz-adv-x="364" 
d="M33 0v666h265v-666h-265zM66 33h199v600h-199v-600z" />
    <glyph glyph-name="space" unicode=" " 
 />
    <glyph glyph-name="exclam" unicode="!" horiz-adv-x="161" 
d="M69 179c16.667 0 28.168 -11.832 34.501 -35.499s3.5 -42.834 -8.5 -57.501c-15.333 -18 -31 -20 -47 -6c-16.667 13.333 -22.334 31.333 -17.001 54c2 6.66699 5 13 9 19c11.333 17.333 21 26 29 26zM68.001 643.001c6 8.66699 13.667 12.1699 23 10.5029
s17 -7.83398 23 -18.501c14.667 -27.333 20 -91.333 16 -192s-14.333 -159.334 -31 -176.001c-7.33301 -7.33301 -12.333 -10.833 -15 -10.5s-7.66699 5.16602 -15 14.499c-6.66699 8 -10.5 24 -11.5 48s-0.833008 71 0.5 141c2.66699 114.667 6 175.667 10 183z" />
    <glyph glyph-name="quotedbl" unicode="&#x22;" 
d="M164 589c6 14.667 15.168 23.332 27.501 25.999s22.833 -1.66602 31.5 -12.999c8.66699 -10.667 11.5 -32.667 8.5 -66s-9.5 -53.333 -19.5 -60c-11.333 -7.33301 -22.333 -5 -33 7s-17.334 27.667 -20.001 47s-1 39 5 59zM107.001 560.998
c0 -62.667 -9.66699 -96.666 -29 -101.999c-10.667 -2.66699 -22.334 5.66602 -35.001 24.999c-10 15.333 -14 44.333 -12 87s8.33301 67.667 19 75c9.33301 6 16.333 8.5 21 7.5s11.334 -5.83301 20.001 -14.5c10.667 -10.667 16 -36.667 16 -78z" />
    <glyph glyph-name="dollar" unicode="$" horiz-adv-x="497" 
d="M390 203c-12.667 26 -23.334 42.998 -32.001 50.998c-7.33301 6 -12.666 4.66699 -15.999 -4c-4 -11.333 -9.66699 -55.666 -17 -132.999l-6 -67l23 7c32.667 9.33301 53.167 26.833 61.5 52.5s3.83301 56.834 -13.5 93.501zM260 296.998
c-8 4.66699 -17.332 7.16504 -27.999 7.49805s-17.334 -1.83398 -20.001 -6.50098c-4 -16 -8.83301 -57.667 -14.5 -125s-10.167 -108 -13.5 -122l32.5 3l32.5 3c0 8.66699 2.16699 35.334 6.5 80.001s7.33301 79.334 9 104.001s0.166992 43.334 -4.5 56.001z
M161.001 445.996c3.33301 30 4 46.665 2 49.998c-3.33301 2.66699 -8 0 -14 -8s-11.167 -18 -15.5 -30s-5.83301 -21.333 -4.5 -28c2.66699 -17.333 7 -25.666 13 -24.999c8 0.666992 14.333 14.334 19 41.001zM312.001 530.994c0 4.66699 -11.001 6.99902 -33.001 6.99902
c-19.333 0 -31.333 -4.66699 -36 -14s-9.66699 -37.666 -15 -84.999c-2.66699 -32.667 -3.16699 -52 -1.5 -58s8.83398 -10.667 21.501 -14c18 -3.33301 28 -4 30 -2s8.16699 28 18.5 78s15.5 79.333 15.5 88zM195 623.993c-0.666992 10 2.17188 23.6689 8.50488 41.002
s12.833 26.666 19.5 27.999c7.33301 0 14.166 -6.66699 20.499 -20s9.5 -27.333 9.5 -42c0 -11.333 2.16699 -18.333 6.5 -21s14.833 -4 31.5 -4c18.667 0 30.167 1.83301 34.5 5.5s9.16602 16.5 14.499 38.5c4.66699 17.333 9 28.833 13 34.5s9 7.83398 15 6.50098
c6.66699 -0.666992 11.167 -5 13.5 -13s4.16602 -22 5.49902 -42c1.33301 -34 10.666 -59 27.999 -75c9.33301 -9.33301 16.166 -20.5 20.499 -33.5s5 -24.167 2 -33.5s-9.16699 -14 -18.5 -14c-14 0 -22.667 4.66699 -26 14c-7.33301 18 -13.666 16.667 -18.999 -4
c-3.33301 -12.667 -7 -34.667 -11 -66l-11 -85l34 -28c25.333 -21.333 45.166 -47.833 59.499 -79.5s21.5 -64.834 21.5 -99.501c0 -25.333 -1.66699 -42.833 -5 -52.5s-11.666 -21.167 -24.999 -34.5c-20.667 -20.667 -45.667 -35.334 -75 -44.001
c-18.667 -6 -31.334 -11.833 -38.001 -17.5s-12.334 -15.5 -17.001 -29.5c-8 -22.667 -18 -34 -30 -34s-21.333 10.667 -28 32c-4 13.333 -8.5 22 -13.5 26s-13.833 6 -26.5 6c-21.333 0 -34 -6.33301 -38 -19c-5.33301 -16 -15 -21.667 -29 -17
c-14.667 6.66699 -22.667 20 -24 40c0 13.333 -11 27.666 -33 42.999c-24.667 16.667 -41.5 40.5 -50.5 71.5s-5.5 53.167 10.5 66.5c23.333 18.667 41 5.66699 53 -39l4 -12.5l3.5 -11c1 -3 2 -5.66699 3 -8s1.83301 -4 2.5 -5s1.33398 -1.5 2.00098 -1.5
c2 6 4.66699 24 8 54l11 103c4 38.667 6.66699 63 8 73l-35 31c-31.333 26.667 -45.5 58.167 -42.5 94.5s22.833 68.5 59.5 96.5c29.333 22.667 48.833 39.334 58.5 50.001s14.5 20.667 14.5 30z" />
    <glyph glyph-name="percent" unicode="%" horiz-adv-x="552" 
d="M412 101c18 0 31.667 5 41 15s10.333 20.667 3 32c-15.333 23.333 -36 24.333 -62 3c-14.667 -12 -20.167 -23.333 -16.5 -34s15.167 -16 34.5 -16zM431 231c1.33301 0 4.16211 -0.333984 8.49512 -1.00098s7 -1.16699 8 -1.5s3.16699 -0.833008 6.5 -1.5
s5.33301 -1.16699 6 -1.5s2.33398 -0.833008 5.00098 -1.5s4.5 -1.5 5.5 -2.5s2.66699 -2.16699 5 -3.5s4.33301 -2.66602 6 -3.99902l6 -5c2.33301 -2 4.83301 -4.33301 7.5 -7c18.667 -18.667 27.834 -40.334 27.501 -65.001s-10.166 -46.667 -29.499 -66
c-12 -11.333 -22.833 -18.833 -32.5 -22.5s-24.5 -5.5 -44.5 -5.5c-48.667 0 -80 14.5 -94 43.5s-5.33301 61.5 26 97.5l13.5 13.5l12.5 12.5c2.66699 2.66699 6.5 5.83398 11.5 9.50098s9.33301 6.16699 13 7.5s8.33398 2.5 14.001 3.5s11.834 1.16699 18.501 0.5z
M170.996 490.999c0 6.66699 -2.33594 11.332 -7.00293 13.999s-13.667 4 -27 4s-23 -1.66699 -29 -5s-11.333 -9.66602 -16 -18.999c-7.33301 -16 -8.66602 -29 -3.99902 -39s14.334 -15 29.001 -15c12.667 0 24.834 6.5 36.501 19.5s17.5 26.5 17.5 40.5zM171.993 566.997
c15.333 0 28.667 -7.49805 40 -22.498s17 -32.167 17 -51.5c0 -36.667 -13.167 -66.834 -39.5 -90.501s-56.166 -32.167 -89.499 -25.5c-29.333 5.33301 -49.833 19.666 -61.5 42.999s-12.334 48.5 -2.00098 75.5s29.5 48.167 57.5 63.5c8.66699 4.66699 16.5 8 23.5 10
s12 3 15 3s9.33301 -0.666992 19 -2s16.5 -2.33301 20.5 -3zM345.994 554.999c20 31.333 33.832 49.834 41.499 55.501s15.834 3.16699 24.501 -7.5c4.66699 -4.66699 1.83398 -19.834 -8.49902 -45.501s-31.833 -72.834 -64.5 -141.501
c-54.667 -113.333 -101.334 -214.666 -140.001 -303.999c-26 -61.333 -45.833 -102 -59.5 -122s-25.834 -26.667 -36.501 -20c-19.333 12.667 -7.66602 70 35.001 172c25.333 63.333 59.5 137.5 102.5 222.5s78.167 148.5 105.5 190.5z" />
    <glyph glyph-name="ampersand" unicode="&#x26;" horiz-adv-x="535" 
d="M215 285c-8 0 -26.6699 -14.667 -56.0029 -44s-47.666 -51.666 -54.999 -66.999c-9.33301 -18.667 -12.166 -34.667 -8.49902 -48s14.834 -26.333 33.501 -39c22 -14.667 55 -19 99 -13s79.667 19.667 107 41c8.66699 7.33301 11.5 14.166 8.5 20.499
s-16.833 22.833 -41.5 49.5c-33.333 35.333 -55 61.333 -65 78c-10 14.667 -17.333 22 -22 22zM165.997 519c0 -11.333 9.66797 -36.834 29.001 -76.501s31.666 -59.5 36.999 -59.5c6.66699 0 23 14.333 49 43c25.333 27.333 38.5 49.333 39.5 66s-10.833 31.667 -35.5 45
c-11.333 6 -31.5 9.5 -60.5 10.5s-46.167 -1.16699 -51.5 -6.5c-4.66699 -3.33301 -7 -10.666 -7 -21.999zM388.998 178.999c4.66699 0 15.3359 15.6699 32.0029 47.0029c14.667 27.333 27.5 46 38.5 56s21.5 13 31.5 9c10.667 -3.33301 14.834 -11.5 12.501 -24.5
s-12.5 -37.5 -30.5 -73.5c-16 -31.333 -24.833 -51.333 -26.5 -60s0.833008 -18.334 7.5 -29.001c10.667 -16 12.667 -27.5 6 -34.5s-18 -5.5 -34 4.5c-10 6.66699 -18.5 9.16699 -25.5 7.5s-21.5 -10.167 -43.5 -25.5c-52 -36 -104 -53.333 -156 -52
s-96.667 20.666 -134 57.999c-14.667 14.667 -24.5 26.834 -29.5 36.501s-7.5 21.5 -7.5 35.5c0 51.333 31 104.666 93 159.999l56 49l-30 66c-18 40 -29.333 72.333 -34 97s-2.66699 44 6 58s24.667 24.333 48 31c21.333 6.66699 47.666 8.5 78.999 5.5
s55.666 -9.83301 72.999 -20.5c18.667 -10.667 33.667 -27.334 45 -50.001c12 -25.333 14.167 -49.833 6.5 -73.5s-26.834 -51.5 -57.501 -83.5l-52 -56c12 -19.333 34.167 -46.5 66.5 -81.5s52.166 -53.833 59.499 -56.5z" />
    <glyph glyph-name="quotesingle" unicode="'" horiz-adv-x="138" 
d="M108 505c0 -46 -8.66504 -76 -25.998 -90c-14.667 -12 -28 -5 -40 21c-8.66699 20 -12.334 48.333 -11.001 85s6.66602 57.667 15.999 63c18 10 32.667 7.83301 44 -6.5s17 -38.5 17 -72.5z" />
    <glyph glyph-name="parenleft" unicode="(" 
d="M210 645c14.667 0 21.6699 -4.99805 21.0029 -14.998c-0.666992 -12 -16.334 -41.667 -47.001 -89c-58 -86.667 -87 -176.334 -87 -269.001c0 -43.333 3.83301 -79.5 11.5 -108.5s23.834 -68.5 48.501 -118.5c27.333 -53.333 37.333 -83.666 30 -90.999
c-10 -10 -23.667 -8.83301 -41 3.5s-34.833 33.166 -52.5 62.499s-32.834 62.666 -45.501 99.999c-8.66699 26.667 -14 50.667 -16 72s-2.33301 54.333 -1 99c1.33301 52 4.16602 86.667 8.49902 104s16.166 46 35.499 86c26 52.667 51 93.667 75 123
c23.333 27.333 43.333 41 60 41z" />
    <glyph glyph-name="parenright" unicode=")" horiz-adv-x="254" 
d="M92 -6c-25.333 0 -23 29.3311 7 87.998c43.333 85.333 60.5 181.833 51.5 289.5s-40.833 188.834 -95.5 243.501c-20 20 -28 33 -24 39c8.66699 14 25.667 13.833 51 -0.5s48 -36.166 68 -65.499c40 -57.333 63.833 -132.5 71.5 -225.5s-4.5 -178.5 -36.5 -256.5
c-13.333 -32 -28.833 -58.667 -46.5 -80s-33.167 -32 -46.5 -32z" />
    <glyph glyph-name="asterisk" unicode="*" horiz-adv-x="356" 
d="M30 533c0 8 2.66504 13.3291 7.99805 15.9961s18 4.66699 38 6c18 0.666992 30.333 2.83398 37 6.50098s11.667 9.83398 15 18.501c2.66699 12 8 23.333 16 34c6.66699 8 15.834 12 27.501 12s18.834 -4.33301 21.501 -13c3.33301 -7.33301 3 -21 -1 -41
c-2 -11.333 -2.16699 -18.333 -0.5 -21s6.5 -2.66699 14.5 0c8 3.33301 27 7.66602 57 12.999c30 4 49.667 -1.66699 59 -17c8.66699 -13.333 4 -25 -14 -35c-6.66699 -3.33301 -14.334 -6 -23.001 -8c-14 -2.66699 -38.667 -10.334 -74 -23.001
c0 -0.666992 3.16699 -6.66699 9.5 -18s10.833 -19.666 13.5 -24.999l11 -22.5c4.66699 -9.66699 7.83398 -18.167 9.50098 -25.5s2.16699 -13.666 1.5 -18.999c-1.33301 -11.333 -5.5 -18.333 -12.5 -21s-15 -1.16699 -24 4.5s-17.833 15.167 -26.5 28.5
c-2 3.33301 -5 8 -9 14c-18.667 30.667 -31.167 47 -37.5 49s-16.833 -5.33301 -31.5 -22l-4 -4c-4.66699 -4.66699 -8 -8.33398 -10 -11.001c-28 -30.667 -44.667 -44 -50 -40c-7.33301 8.66699 -9 22.334 -5 41.001s12 35.334 24 50.001c14 16 19.833 27.833 17.5 35.5
s-13.5 12.834 -33.5 15.501c-16 2 -24 9.33301 -24 22z" />
    <glyph glyph-name="plus" unicode="+" horiz-adv-x="467" 
d="M334 363c41.333 0 68.832 -1.83203 82.499 -5.49902s20.5 -11.167 20.5 -22.5c0 -15.333 -6.5 -25.833 -19.5 -31.5s-37.833 -8.5 -74.5 -8.5h-71v-32c0 -26 -5.16699 -45 -15.5 -57s-21.5 -14 -33.5 -6s-20.667 24.667 -26 50l-9 40l-71 7
c-38 3.33301 -62.5 7.83301 -73.5 13.5s-15.167 15.5 -12.5 29.5c1.33301 8 6.5 13.167 15.5 15.5s30.167 4.16602 63.5 5.49902l74 3c-2 86 1.66699 137.667 11 155c6 13.333 16.333 19 31 17c22.667 -2.66699 34.334 -44.667 35.001 -126v-47h73z" />
    <glyph glyph-name="comma" unicode="," horiz-adv-x="180" 
d="M68 23c-17.333 0 -29.1699 12.3311 -35.5029 36.998s-1.83301 41.334 13.5 50.001c12 7.33301 22.333 10.5 31 9.5s20 -5.83301 34 -14.5c16.667 -10.667 28.167 -27.167 34.5 -49.5s6.5 -46.5 0.5 -72.5c-4.66699 -22 -12.167 -38.667 -22.5 -50
s-21.166 -14.666 -32.499 -9.99902c-7.33301 3.33301 -12 9.5 -14 18.5s-2.33301 25.833 -1 50.5c0.666992 8.66699 0.333984 16 -0.999023 22s-3.66602 9 -6.99902 9z" />
    <glyph glyph-name="hyphen" unicode="-" horiz-adv-x="330" 
d="M155 266c46 0 76.334 -1 91.001 -3s26.667 -7.33301 36 -16c11.333 -9.33301 17.166 -15.5 17.499 -18.5s-4.16699 -8.16699 -13.5 -15.5c-14 -10.667 -57.5 -15.167 -130.5 -13.5s-113.167 8.16699 -120.5 19.5c-6.66699 10.667 -6 21 2 31
c5.33301 6.66699 15.833 11 31.5 13s44.5 3 86.5 3z" />
    <glyph glyph-name="period" unicode="." horiz-adv-x="168" 
d="M79 4c-22.667 0 -38 11.167 -46 33.5s-3.66699 41.5 13 57.5c8.66699 9.33301 22 14.5 40 15.5s31.333 -2.83301 40 -11.5c15.333 -15.333 17 -35 5 -59s-29.333 -36 -52 -36z" />
    <glyph glyph-name="slash" unicode="/" horiz-adv-x="312" 
d="M245 619c10 4 17.1699 5.16699 21.5029 3.5s9.16602 -7.16699 14.499 -16.5c4 -8 -0.333008 -30.833 -13 -68.5s-40.667 -111.167 -84 -220.5c-70 -176 -110.333 -270.333 -121 -283c-10 -8.66699 -18.333 -10.667 -25 -6c-8.66699 5.33301 -10.834 24 -6.50098 56
s14.166 69.667 29.499 113c20 58 54.167 142 102.5 252s75.5 166.667 81.5 170z" />
    <glyph glyph-name="zero" unicode="0" horiz-adv-x="385" 
d="M186 538c-31.333 -27.333 -54.001 -61.5039 -68.001 -102.504s-20.667 -95.833 -20 -164.5c0 -47.333 1.33301 -79.5 4 -96.5s9.33398 -36.167 20.001 -57.5c15.333 -31.333 28.833 -50.666 40.5 -57.999s24.167 -4.66602 37.5 8.00098
c26.667 24.667 47.834 62.334 63.501 113.001s23.5 106.334 23.5 167.001c0 50.667 -4.33301 87.667 -13 111s-25.334 43 -50.001 59c-21.333 14 -34 21 -38 21zM29.999 265.996c0 46 1.50391 80.501 4.50391 103.501s9.16699 47.833 18.5 74.5
c11.333 33.333 26.666 63.5 45.999 90.5s38 44.167 56 51.5c16 6.66699 30 9 42 7s30.667 -10 56 -24c19.333 -10 34.166 -20.5 44.499 -31.5s20.833 -27.167 31.5 -48.5c13.333 -25.333 21.166 -45.5 23.499 -60.5s2.16602 -48.167 -0.500977 -99.5
c-8 -141.333 -42.667 -242.333 -104 -303c-33.333 -32.667 -65.833 -43.834 -97.5 -33.501s-60.5 41.5 -86.5 93.5c-16.667 32.667 -26.5 57.167 -29.5 73.5s-4.5 51.833 -4.5 106.5z" />
    <glyph glyph-name="one" unicode="1" horiz-adv-x="291" 
d="M179 617c10 8.66699 17.668 13.167 23.001 13.5s12.333 -2.5 21 -8.5c14.667 -9.33301 23.834 -30.666 27.501 -63.999s6.5 -118.333 8.5 -255c2 -121.333 2.16699 -192.833 0.5 -214.5s-7.5 -33.167 -17.5 -34.5c-20.667 -2.66699 -33.5 8.83301 -38.5 34.5
s-9.16699 95.5 -12.5 209.5l-6 216l-35.5 -69l-56 -106c-14.333 -26 -24.833 -42.333 -31.5 -49c-6.66699 -4.66699 -14.667 -2.33398 -24 6.99902c-6.66699 6.66699 -9.33398 14.5 -8.00098 23.5s7.66602 28.167 18.999 57.5c17.333 46.667 40 95.5 68 146.5
s48.667 81.833 62 92.5z" />
    <glyph glyph-name="two" unicode="2" horiz-adv-x="389" 
d="M108 122c0 -5.33301 13.001 -10.3291 39.001 -14.9961c90.667 -14 138 -30 142 -48c1.33301 -6.66699 -1.66699 -14.334 -9 -23.001c-8 -10.667 -28.333 -13.667 -61 -9c-74 8.66699 -124 18.5 -150 29.5s-39 27.167 -39 48.5c0 18.667 11.667 48.667 35 90s49 78 77 110
c64.667 73.333 106 127.166 124 161.499s21.667 65.833 11 94.5c-4.66699 10.667 -19 15.667 -43 15s-45.333 -6.66699 -64 -18c-12.667 -8 -21.334 -16.167 -26.001 -24.5s-8.33398 -22.833 -11.001 -43.5c-4.66699 -33.333 -13.334 -49.666 -26.001 -48.999
c-12 0 -20.333 14 -25 42l-3 34c0 48 27 84.333 81 109c42.667 19.333 81 24.166 115 14.499s58 -32.834 72 -69.501c7.33301 -19.333 11.333 -34.333 12 -45s-1.66602 -25 -6.99902 -43c-7.33301 -26.667 -20.666 -54.334 -39.999 -83.001s-53 -71 -101 -127
c-68.667 -78.667 -103 -129 -103 -151z" />
    <glyph glyph-name="three" unicode="3" horiz-adv-x="371" 
d="M341 324c0 -41.333 -8.49805 -85.499 -25.498 -132.499s-38.167 -85.167 -63.5 -114.5c-32.667 -36.667 -69.334 -58.834 -110.001 -66.501s-71.667 2.16602 -93 29.499c-12 16 -18.333 37.833 -19 65.5s4.66602 47.167 15.999 58.5c8 8 13.333 12 16 12
s7.33398 -4.33301 14.001 -13c8 -11.333 12 -26 12 -44c0 -28.667 12.167 -43.334 36.5 -44.001s49.166 12.666 74.499 39.999c18.667 19.333 35.667 50 51 92s23 78.667 23 110c0 45.333 -8.33301 73 -25 83c-10.667 6.66699 -21.334 1 -32.001 -17
c-8.66699 -12.667 -20.667 -19 -36 -19s-25 6.33301 -29 19c-4.66699 14 0 29.667 14 47c28.667 34.667 47.667 73 57 115c4.66699 26.667 1.33398 40.334 -9.99902 41.001c-7.33301 0 -24.666 -14.333 -51.999 -43c-34 -36.667 -53.667 -49 -59 -37c-2 4 -3 10.333 -3 19
c0 16.667 8.66699 36.334 26 59.001s35.666 38.334 54.999 47.001c21.333 8.66699 38 12.5 50 11.5s23.667 -7.16699 35 -18.5c9.33301 -9.33301 14.833 -19 16.5 -29s1.16699 -31 -1.5 -63c-3.33301 -47.333 -0.333008 -72.666 9 -75.999
c11.333 -4.66699 23 -21.834 35 -51.501s18 -56.5 18 -80.5z" />
    <glyph glyph-name="four" unicode="4" horiz-adv-x="357" 
d="M148 295l38.499 0.00390625c7.66699 0 16.167 1.33301 25.5 4s15.166 5 17.499 7s5.33301 7.66699 9 17s6 17.333 7 24l5.5 38c16 111.333 30 170.666 42 177.999c6 4.66699 14 2 24 -8c6.66699 -6 9.83398 -22 9.50098 -48s-4.16602 -85.667 -11.499 -179
c-9.33301 -125.333 -16.333 -200.166 -21 -224.499s-15.334 -36.5 -32.001 -36.5c-11.333 0 -18.333 3.83301 -21 11.5s-4.66699 31.5 -6 71.5l-3 82l-75 -3c-32.667 -1.33301 -55 -0.833008 -67 1.5s-24 8.16602 -36 17.499s-19.333 17.666 -22 24.999s-2.66699 20 0 38
c2 27.333 26.667 88.666 74 183.999c30.667 62.667 51 101.667 61 117s19.667 22.333 29 21c14.667 -2 23 -8 25 -18c2.66699 -10.667 -15.666 -59.334 -54.999 -146.001c-40.667 -91.333 -61.667 -143.333 -63 -156c-1.33301 -10.667 4 -16.667 16 -18h29z" />
    <glyph glyph-name="five" unicode="5" horiz-adv-x="301" 
d="M108 464l-0.00292969 -88.0029l28 5c32.667 4.66699 61.5 -8.16602 86.5 -38.499s40.833 -71.166 47.5 -122.499c6.66699 -56 -6.16602 -104.333 -38.499 -145s-73.833 -61 -124.5 -61c-51.333 0 -77 21 -77 63c0 27.333 6.33301 42.833 19 46.5
s25.334 -6.16602 38.001 -29.499c7.33301 -13.333 14.5 -20.333 21.5 -21s21.5 4 43.5 14c30.667 14.667 49.167 44.667 55.5 90s-2.5 86.333 -26.5 123c-8.66699 14 -18 21.667 -28 23s-25 -3 -45 -13c-34.667 -17.333 -56 -10.333 -64 21c-4 12.667 -4.66699 60 -2 142
c4 111.333 20 172.666 48 183.999c22.667 8.66699 57.5 7.5 104.5 -3.5s69.167 -23.167 66.5 -36.5c-1.33301 -6.66699 -6.66602 -11.167 -15.999 -13.5s-28.333 -4.16602 -57 -5.49902c-36 -1.33301 -57.333 -5 -64 -11c-10 -8 -15.333 -32.667 -16 -74v-49z" />
    <glyph glyph-name="six" unicode="6" horiz-adv-x="301" 
d="M164 285c-6 0 -15.501 -9.16797 -28.501 -27.501s-21.167 -33.5 -24.5 -45.5s0.166992 -29 10.5 -51s20.833 -35 31.5 -39c5.33301 -2 10.833 1 16.5 9s10.334 18.833 14.001 32.5s6.33398 27.834 8.00098 42.501s1.66699 28.5 0 41.5s-4.83398 21.833 -9.50098 26.5
c-7.33301 7.33301 -13.333 11 -18 11zM96.999 343.999c0 -8.66699 1.33496 -13.168 4.00195 -13.501s10.334 3.16699 23.001 10.5c33.333 18 68.333 11.333 105 -20c16.667 -14.667 26.667 -37.167 30 -67.5s1 -60.333 -7 -90s-20.667 -55.667 -38 -78
s-36.333 -33.5 -57 -33.5c-32.667 0 -60.834 20.167 -84.501 60.5s-37.5 91.833 -41.5 154.5c-4 64.667 2.5 132.667 19.5 204s39.167 123.666 66.5 156.999c34.667 42 72.334 49.333 113.001 22c12 -8.66699 22.667 -25.667 32 -51s11.666 -43.666 6.99902 -54.999
c-3.33301 -7.33301 -7.83301 -12 -13.5 -14s-11.334 -1.16699 -17.001 2.5s-9.5 9.83398 -11.5 18.501c-3.33301 14 -10.833 27 -22.5 39s-20.834 16 -27.501 12c-13.333 -8.66699 -30 -45 -50 -109s-30 -113.667 -30 -149z" />
    <glyph glyph-name="seven" unicode="7" horiz-adv-x="323" 
d="M215 322c4 -2 8.83105 -3.83496 14.498 -5.50195s9.5 -3.66699 11.5 -6s4 -7.5 6 -15.5c4.66699 -14.667 2.33398 -26.5 -6.99902 -35.5s-22 -11.833 -38 -8.5c-12.667 3.33301 -21.5 1.5 -26.5 -5.5s-13.5 -29.833 -25.5 -68.5
c-21.333 -66.667 -35.166 -105.667 -41.499 -117s-16.833 -17 -31.5 -17h-1c-12 0 -19.667 1.66699 -23 5s-5 10.666 -5 21.999c0 20.667 10 61.667 30 123c14 46 21.833 73.833 23.5 83.5s-1.5 17.5 -9.5 23.5c-24.667 14 -40 24.833 -46 32.5s-5.66699 15.834 1 24.501
c7.33301 12.667 37.666 16.334 90.999 11.001c2 5.33301 6.83301 17 14.5 35l22 53l21 53.5c7 18.333 11.833 33.833 14.5 46.5s2.66699 20.334 0 23.001c-7.33301 4 -29 6.66699 -65 8c-41.333 0.666992 -70.5 3.66699 -87.5 9s-26.167 14 -27.5 26c-2 14 3 23 15 27
c10.667 3.33301 47.334 3.5 110.001 0.5s99 -6.5 109 -10.5c10.667 -3.33301 19 -14 25 -32c5.33301 -14 5 -31.167 -1 -51.5s-24.333 -69.5 -55 -147.5c-20.667 -51.333 -26.667 -80 -18 -86z" />
    <glyph glyph-name="eight" unicode="8" horiz-adv-x="331" 
d="M202 290l-8.99805 17.5l-7.5 13.5c-2.33301 4 -4.33301 7 -6 9s-2.83398 3 -3.50098 3c-4.66699 0 -14 -9.5 -28 -28.5s-25.667 -37.167 -35 -54.5c-10 -20 -15.167 -45 -15.5 -75s4.5 -47 14.5 -51c11.333 -4.66699 25.666 -4 42.999 2s32.333 15.333 45 28
c30 30 30.667 75.333 2 136zM157.002 412c7.33301 0 23.499 17.001 48.499 51.001s37.5 55.667 37.5 65c-2.66699 22.667 -14.834 37.5 -36.501 44.5s-43.5 1.16699 -65.5 -17.5c-11.333 -8.66699 -18.166 -16.334 -20.499 -23.001s-2.16602 -18 0.500977 -34
c3.33301 -22 8.83301 -41.833 16.5 -59.5s14.167 -26.5 19.5 -26.5zM301.001 540.001c0 -27.333 -4 -50.002 -12 -68.002s-23.333 -39.333 -46 -64l-39 -43l24 -15c16 -10.667 30.5 -29.167 43.5 -55.5s19.5 -50.5 19.5 -72.5c0 -42.667 -15.5 -80 -46.5 -112
s-67.167 -48 -108.5 -48c-84 0 -118.333 50 -103 150c5.33301 30.667 30 82 74 154c-28 57.333 -43.667 102 -47 134c-2.66699 27.333 0.5 49.833 9.5 67.5s25.833 33.834 50.5 48.501c28 14.667 55.5 21.334 82.5 20.001s50.167 -11 69.5 -29s29 -40.333 29 -67z" />
    <glyph glyph-name="nine" unicode="9" horiz-adv-x="315" 
d="M204 549c-18.667 12 -40.3311 10.668 -64.998 -3.99902s-40.667 -35.667 -48 -63c-8.66699 -35.333 -0.333984 -59.833 24.999 -73.5s48.333 -6.16699 69 22.5c13.333 19.333 22.166 42.166 26.499 68.499s1.83301 42.833 -7.5 49.5zM285.003 400.001
c0 -122.667 -5.33496 -202.998 -16.002 -240.998c-13.333 -52 -30.5 -89.167 -51.5 -111.5s-49.167 -33.5 -84.5 -33.5c-17.333 0 -34 6.16699 -50 18.5s-24 25.166 -24 38.499c0 12.667 2.5 20.167 7.5 22.5s15.167 0.5 30.5 -5.5
c34.667 -13.333 60.667 -7.66602 78 17.001s30.333 74 39 148c8.66699 71.333 11 109.333 7 114c-2.66699 2 -9.66699 -0.666992 -21 -8c-14.667 -10 -36 -15 -64 -15c-16 0 -28.833 2.16699 -38.5 6.5s-21.167 13.166 -34.5 26.499s-22.166 24.833 -26.499 34.5
s-6.5 22.167 -6.5 37.5c0 25.333 3.66699 47.666 11 66.999c6 16 17.5 33.5 34.5 52.5s32.5 31.833 46.5 38.5c13.333 5.33301 40.833 4.83301 82.5 -1.5s66.834 -13.833 75.501 -22.5c3.33301 -3.33301 5 -64.333 5 -183z" />
    <glyph glyph-name="colon" unicode=":" horiz-adv-x="179" 
d="M53 107c18 18 36.165 23.5 54.498 16.5s27.833 -22.833 28.5 -47.5c0 -24 -10.5 -41.333 -31.5 -52s-39.5 -8 -55.5 8c-13.333 13.333 -19.666 25.5 -18.999 36.5s8.33398 23.833 23.001 38.5zM85.998 334c-26.667 0 -43.5 13.834 -50.5 41.501s-0.166992 53.5 20.5 77.5
c9.33301 10 23 15.167 41 15.5s31.333 -4.5 40 -14.5c9.33301 -10.667 13.333 -27.334 12 -50.001s-7.33301 -39.667 -18 -51c-11.333 -12.667 -26.333 -19 -45 -19z" />
    <glyph glyph-name="semicolon" unicode=";" horiz-adv-x="167" 
d="M49 111c23.333 23.333 45.001 24.667 65.001 4c19.333 -18.667 26.666 -44 21.999 -76c-2 -19.333 -9.33301 -36.333 -22 -51c-14.667 -17.333 -28.167 -24.333 -40.5 -21s-16.5 15 -12.5 35c4 18.667 -0.333008 31.667 -13 39c-12 8 -17.833 18.667 -17.5 32
s6.5 26 18.5 38zM59.001 443.001c6 10.667 15.002 16.167 27.002 16.5s22.333 -4.16699 31 -13.5c7.33301 -8.66699 11.166 -24.334 11.499 -47.001s-3.16699 -40.667 -10.5 -54c-6.66699 -12 -17.667 -18.667 -33 -20s-27.333 3.33398 -36 14.001
c-6.66699 7.33301 -8.83398 22.5 -6.50098 45.5s7.83301 42.5 16.5 58.5z" />
    <glyph glyph-name="equal" unicode="=" horiz-adv-x="393" 
d="M85 259c24.667 4 66 2.50195 124 -4.49805s96.333 -15.167 115 -24.5c16.667 -8.66699 25 -16.334 25 -23.001s-7.66699 -13.667 -23 -21c-15.333 -6.66699 -61.833 -5.83398 -139.5 2.49902s-120.5 17.166 -128.5 26.499c-8.66699 9.33301 -10.167 18.333 -4.5 27
s16.167 14.334 31.5 17.001zM42 416.002c5.33301 2.66699 57.001 3.33301 155.001 2c58.667 -1.33301 98.167 -2.83301 118.5 -4.5s33.166 -5.5 38.499 -11.5c10 -9.33301 12 -19 6 -29c-4 -6 -16 -9.83301 -36 -11.5s-59 -1.83398 -117 -0.500977
c-98 2.66699 -151.333 5.33398 -160 8.00098c-10 2.66699 -15.667 10.167 -17 22.5s2.66699 20.5 12 24.5z" />
    <glyph glyph-name="greater" unicode="&#x3e;" horiz-adv-x="454" 
d="M75 480l21.002 -8.00391l65 -23l82 -29c50 -18 86.5 -31.667 109.5 -41s41.167 -18.833 54.5 -28.5s19.5 -18 18.5 -25s-5.83301 -16.833 -14.5 -29.5c-26.667 -35.333 -97.334 -72.666 -212.001 -111.999c-58.667 -20.667 -98 -33 -118 -37s-34 -3 -42 3
c-6 3.33301 -9.16699 6.83301 -9.5 10.5s1.5 8.83398 5.5 15.501c4.66699 8.66699 19.667 18.834 45 30.501s84 36.5 176 74.5c43.333 18 65 29 65 33s-21.667 13.667 -65 29c-47.333 17.333 -93.333 36.333 -138 57s-69.334 34.334 -74.001 41.001
c-6 5.33301 -3.66699 12.833 7 22.5s18.667 15.167 24 16.5z" />
    <glyph glyph-name="question" unicode="?" horiz-adv-x="360" 
d="M140 97c16.667 12 32.333 11.999 47 -0.000976562s18 -28 10 -48c-4.66699 -11.333 -17 -16 -37 -14c-11.333 1.33301 -19.5 3.83301 -24.5 7.5s-7.83301 9.83398 -8.5 18.501c-2 16.667 2.33301 28.667 13 36zM85.999 440.999c0 -18 -3.00098 -29.8311 -9.00098 -35.498
s-12.667 -6.16699 -20 -1.5s-13 12 -17 22c-15.333 34.667 -13 66.334 7 95.001s52.667 47.667 98 57c35.333 7.33301 69.5 5.16602 102.5 -6.50098s55.5 -29.5 67.5 -53.5c20 -38.667 19.833 -77.334 -0.5 -116.001s-63.833 -83 -130.5 -133
c-6.66699 -5.33301 -9.5 -9.5 -8.5 -12.5s6.83301 -8.83301 17.5 -17.5c10 -8.66699 15.667 -14.834 17 -18.501s-0.666992 -9.16699 -6 -16.5c-9.33301 -10.667 -25.166 -15.5 -47.499 -14.5s-39.166 7.16699 -50.499 18.5c-18.667 19.333 -23.334 39 -14.001 59
s35.666 48 78.999 84c44.667 38 72.167 66.333 82.5 85s8.5 38 -5.5 58c-9.33301 12.667 -30.666 18.667 -63.999 18c-35.333 -0.666992 -60.5 -6.5 -75.5 -17.5s-22.5 -28.833 -22.5 -53.5z" />
    <glyph glyph-name="at" unicode="@" horiz-adv-x="590" 
d="M326 291c-8.66699 10 -15.835 14.167 -21.502 12.5s-11.167 -9.5 -16.5 -23.5c-11.333 -30.667 -12.666 -51.667 -3.99902 -63c6 -8 14.333 -5.33301 25 8c24.667 28 30.334 50 17.001 66zM313.999 72c42 0 70.8408 1.66699 86.5078 5s38.5 13 68.5 29
c50.667 26.667 79.667 36.334 87 29.001c2.66699 -2.66699 4 -7.33398 4 -14.001c0 -14.667 -9.83301 -32.5 -29.5 -53.5s-41.834 -36.833 -66.501 -47.5c-30 -13.333 -76.667 -20.333 -140 -21s-113.333 5.33301 -150 18c-30.667 10.667 -59.334 29.667 -86.001 57
s-44 55.666 -52 84.999c-12 44.667 -6.33301 98 17 160s57.5 117.833 102.5 167.5s90.5 80.167 136.5 91.5c35.333 8.66699 73.666 5.16699 114.999 -10.5s72 -38.167 92 -67.5c24 -35.333 37.167 -77.833 39.5 -127.5s-6.5 -94.5 -26.5 -134.5
c-13.333 -25.333 -30.333 -43.5 -51 -54.5s-41 -12.5 -61 -4.5c-17.333 6.66699 -35.333 3.33398 -54 -9.99902s-37.834 -19.666 -57.501 -18.999s-35.834 8 -48.501 22c-8.66699 8.66699 -14.167 18 -16.5 28s-2.83301 26.667 -1.5 50c4 53.333 20.167 88.333 48.5 105
s57.833 9 88.5 -23c20 -20 36 -41.333 48 -64c9.33301 -18.667 18 -27 26 -25s16.667 15 26 39c14.667 35.333 17.667 73.5 9 114.5s-26 71.833 -52 92.5c-19.333 15.333 -45.333 22.166 -78 20.499s-61.334 -11.167 -86.001 -28.5
c-58.667 -42.667 -101.834 -101.667 -129.501 -177s-26.834 -131.666 2.49902 -168.999c17.333 -22.667 40.5 -38.834 69.5 -48.501s68.833 -14.5 119.5 -14.5z" />
    <glyph glyph-name="A" unicode="A" horiz-adv-x="338" 
d="M146 293c1.33301 -5.33301 23.998 -8 67.998 -8l-6 81c-5.33301 62 -10.666 94 -15.999 96c-3.33301 1.33301 -7.33301 -6 -12 -22c-3.33301 -11.333 -7.66602 -28 -12.999 -50c-14 -58.667 -21 -91 -21 -97zM169.998 217c-21.333 0 -34.166 -1.66699 -38.499 -5
s-9.16602 -15 -14.499 -35c-26.667 -101.333 -49.667 -152 -69 -152c-3.33301 0 -6.33301 1 -9 3c-6.66699 5.33301 -9.66699 16.666 -9 33.999s5.66699 48.333 15 93c6.66699 30.667 10.167 52.167 10.5 64.5s-1.83398 22.5 -6.50098 30.5c-5.33301 8 -7.5 14 -6.5 18
s5.83301 9.33301 14.5 16c13.333 10.667 31.333 63.667 54 159c18.667 76.667 33.167 130 43.5 160s21.833 51.333 34.5 64c9.33301 9.33301 16.166 14.5 20.499 15.5s12.166 -1.83301 23.499 -8.5c12 -6.66699 20 -36.667 24 -90
c0 -7.33301 9.16699 -100.166 27.5 -278.499s25.833 -280.166 22.5 -305.499c-2.66699 -10 -7.5 -17.167 -14.5 -21.5s-14.333 -4.83301 -22 -1.5s-13.5 10 -17.5 20c-4 5.33301 -10.167 40.666 -18.5 105.999s-13.5 100.333 -15.5 105c-3.33301 6 -19.666 9 -48.999 9z" />
    <glyph glyph-name="B" unicode="B" horiz-adv-x="390" 
d="M150 91c15.333 0 35.499 6.50293 60.499 19.5029s41.833 25.833 50.5 38.5c17.333 22 26.333 49.5 27 82.5s-6.5 63.167 -21.5 90.5s-34.833 44 -59.5 50c-22.667 -1.33301 -36.667 -5.83301 -42 -13.5s-9.66602 -28.834 -12.999 -63.501
c-1.33301 -12.667 -3.33301 -35.334 -6 -68.001s-4.66699 -55.334 -6 -68.001c-2.66699 -28.667 -3.5 -47.167 -2.5 -55.5s5.16699 -12.5 12.5 -12.5zM223.999 560.003c0 26 -13.668 35.332 -41.001 27.999c-7.33301 -1.33301 -12.166 -6.33301 -14.499 -15
s-3.5 -26 -3.5 -52c0 -36.667 2.33301 -55 7 -55c2 0 5 1.66699 9 5c10.667 8.66699 20.5 22.334 29.5 41.001s13.5 34.667 13.5 48zM98.998 577.002c0 44 22.668 67.3291 68.001 69.9961c30.667 2 53.167 0.833008 67.5 -3.5s26.833 -13.166 37.5 -26.499
c12.667 -15.333 19 -35.666 19 -60.999s-6.33301 -50.666 -19 -75.999l-19 -38l41 -42c45.333 -45.333 67.5 -100.666 66.5 -165.999s-24.833 -118.333 -71.5 -159c-33.333 -29.333 -76 -47.833 -128 -55.5s-89.667 -1.16699 -113 19.5c-21.333 18 -23 35 -5 51
c7.33301 5.33301 13.666 23 18.999 53c3.33301 26 10.333 100.833 21 224.5s16 193.5 16 209.5z" />
    <glyph glyph-name="C" unicode="C" horiz-adv-x="363" 
d="M93 276c0 -52.667 10.833 -101.499 32.5 -146.499s45.167 -67.5 70.5 -67.5c10.667 0 30 14.667 58 44c43.333 47.333 69.333 54 78 20c7.33301 -28 -4.66699 -57 -36 -87s-65.333 -45 -102 -45c-55.333 0 -100.333 34 -135 102c-14 26.667 -22.333 48.5 -25 65.5
s-4 54.833 -4 113.5c0 51.333 1.33301 87.5 4 108.5s8.66699 43.5 18 67.5c14.667 37.333 32.334 71 53.001 101s40.334 51 59.001 63c37.333 24 72.5 27 105.5 9s47.833 -48 44.5 -90c-1.33301 -16 -3.33301 -27 -6 -33s-8.33398 -9.33301 -17.001 -10
c-8.66699 -1.33301 -14.834 0.166992 -18.501 4.5s-7.5 14.166 -11.5 29.499c-10 42 -29 53.667 -57 35c-30 -20.667 -57 -62.667 -81 -126c-20 -54 -30 -106.667 -30 -158z" />
    <glyph glyph-name="D" unicode="D" horiz-adv-x="344" 
d="M115 111c14.667 0 32.667 8.33203 54 24.999s38 35.667 50 57c9.33301 17.333 15.333 34.166 18 50.499s3.66699 46.5 3 90.5c0 54.667 -5 98.834 -15 132.501s-26.667 63.167 -50 88.5c-31.333 34.667 -51.333 45 -60 31c-4.66699 -7.33301 -8.66699 -88 -12 -242
c-4 -139.333 -3.66699 -214.666 1 -225.999c2 -4.66699 5.66699 -7 11 -7zM314 328.999c0 -134.667 -42.665 -223.666 -127.998 -266.999c-21.333 -11.333 -50.5 -18.833 -87.5 -22.5s-58.833 -1.16699 -65.5 7.5c-4.66699 6 -4.83398 87 -0.500977 243
s9.16602 251.667 14.499 287c4.66699 29.333 11.667 51.333 21 66s19.333 20 30 16c8 -3.33301 24.333 -8 49 -14c24 -6 44.167 -15.5 60.5 -28.5s32.5 -32.167 48.5 -57.5c21.333 -33.333 36.333 -67.333 45 -102s13 -77.334 13 -128.001z" />
    <glyph glyph-name="E" unicode="E" horiz-adv-x="329" 
d="M191 596l-71.9971 -0.000976562c-10 -101.333 -18 -174 -24 -218h67c29.333 0 47.833 -1.16699 55.5 -3.5s12.167 -8.5 13.5 -18.5c2.66699 -15.333 -4 -26.5 -20 -33.5s-38.333 -8.83301 -67 -5.5l-47 6c0 -133.333 2.66699 -206.333 8 -219
c4.66699 -8 37.667 -13 99 -15c42 -1.33301 68 -3.16602 78 -5.49902s15.667 -8.16602 17 -17.499c2 -14 -4.83301 -23.5 -20.5 -28.5s-51.834 -8.83301 -108.501 -11.5c-55.333 -2.66699 -89.333 -1.33398 -102 3.99902c-17.333 7.33301 -28 29.333 -32 66
c-2 18 -3.66699 58.667 -5 122c-2.66699 46 -2.83398 90.833 -0.500977 134.5s6.16602 91.667 11.499 144s8.66602 88.833 9.99902 109.5c0.666992 18 2.5 30 5.5 36s9.83301 10.667 20.5 14c15.333 4.66699 47.333 5.66699 96 3c37.333 -2 63.833 -6.83301 79.5 -14.5
s20.834 -18.5 15.501 -32.5c-2.66699 -6.66699 -9.16699 -11 -19.5 -13s-29.833 -3 -58.5 -3z" />
    <glyph glyph-name="F" unicode="F" horiz-adv-x="397" 
d="M136 587l0.00292969 -223.999h33c42.667 0 71 -9.33301 85 -28c9.33301 -12.667 6.66602 -25 -8.00098 -37c-4.66699 -4 -12.167 -6.5 -22.5 -7.5s-19.333 -1.33301 -27 -1s-19 1.5 -34 3.5s-23.833 3 -26.5 3l6 -116c2.66699 -54 3.5 -87.167 2.5 -99.5
s-6.16699 -21.166 -15.5 -26.499c-12.667 -6.66699 -23.334 -7.33398 -32.001 -2.00098c-7.33301 4.66699 -13.833 26.667 -19.5 66s-8.5 81.666 -8.5 126.999c-0.666992 33.333 -5.66699 50 -15 50c-6.66699 0 -11.5 2.16699 -14.5 6.5s-3.83301 10 -2.5 17
s5 13.833 11 20.5c11.333 12.667 18.666 57 21.999 133c3.33301 56 4.33301 89 3 99s-7.33301 15.667 -18 17c-14 2 -22 10.333 -24 25c-1.33301 8.66699 0.166992 14.667 4.5 18s14.166 6.33301 29.499 9c28 5.33301 43.333 8.66602 46 9.99902
c8.66699 3.33301 42.667 4.33301 102 3s96.333 -3.66602 111 -6.99902c17.333 -4 30 -11.5 38 -22.5s7.66699 -20.833 -1 -29.5c-1.33301 -3.33301 -8.16602 -5.83301 -20.499 -7.5s-28.5 -2.66699 -48.5 -3s-38.667 -0.333008 -56 0s-36.833 1 -58.5 2s-35.5 1.5 -41.5 1.5
z" />
    <glyph glyph-name="G" unicode="G" horiz-adv-x="342" 
d="M191 23c-26 0 -51.1699 13.1631 -75.5029 39.4961s-44.166 61.5 -59.499 105.5c-16 46.667 -24.5 100.5 -25.5 161.5s5.83301 112.5 20.5 154.5c10.667 30.667 26.667 61.334 48 92.001s41.333 51.667 60 63c26.667 16.667 54 18 82 4
c13.333 -6.66699 25.333 -18.167 36 -34.5s14.334 -29.166 11.001 -38.499c-3.33301 -8.66699 -11 -12.667 -23 -12s-21.667 5.33398 -29 14.001c-14.667 18 -31.667 19.667 -51 5s-39 -44 -59 -88c-22.667 -51.333 -33 -109.166 -31 -173.499s16 -121.166 42 -170.499
c28.667 -54 59.334 -66.333 92.001 -37c8.66699 7.33301 13.667 15.166 15 23.499s0.333008 24.166 -3 47.499c-5.33301 46.667 -10.333 74.5 -15 83.5s-16.667 14.167 -36 15.5c-14 1.33301 -23.833 3.5 -29.5 6.5s-8.83398 8.83301 -9.50098 17.5
c-2 12.667 5.16699 23.834 21.5 33.501s33.833 14.667 52.5 15s34.334 -4.16699 47.001 -13.5c10 -10 20.167 -47.333 30.5 -112s12.5 -106 6.5 -124c-5.33301 -16 -21.5 -33 -48.5 -51s-50.167 -27 -69.5 -27z" />
    <glyph glyph-name="H" unicode="H" horiz-adv-x="354" 
d="M86 606c14 0 22.8291 -10.5 26.4961 -31.5s3.83398 -61.167 0.500977 -120.5c-1.33301 -28.667 -2.5 -52.667 -3.5 -72s-1.16699 -29 -0.5 -29c16 6.66699 58.667 18.667 128 36l13 96c7.33301 48.667 14 81 20 97s15 24 27 24c12.667 0 20.834 -9.5 24.501 -28.5
s3.16699 -51.833 -1.5 -98.5c-4.66699 -44.667 -11 -140 -19 -286c-5.33301 -98 -11.333 -162.667 -18 -194s-18 -48.333 -34 -51c-7.33301 -1.33301 -13.166 0.5 -17.499 5.5s-7.5 15.167 -9.5 30.5s-2.83301 36 -2.5 62s1.5 60.667 3.5 104
c6 105.333 8.33301 159.333 7 162c-2 1.33301 -21.833 -2.5 -59.5 -11.5s-57.834 -14.833 -60.501 -17.5c-4 -4 -7.66699 -47.333 -11 -130c-2.66699 -52 -5.66699 -86.167 -9 -102.5s-8.66602 -26.833 -15.999 -31.5s-13 -6.33398 -17 -5.00098s-9.33301 6 -16 14
c-6 8 -9.5 22.5 -10.5 43.5s-0.166992 63.5 2.5 127.5c2.66699 73.333 7.33398 154.333 14.001 243s12 139.334 16 152.001c4 8 11.667 12 23 12z" />
    <glyph glyph-name="I" unicode="I" horiz-adv-x="300" 
d="M130 548c-60 0 -92.334 2.66797 -97.001 8.00098c-5.33301 8.66699 -4.33301 17.834 3 27.501s18.666 16.834 33.999 21.501c12 6 47.167 9.66699 105.5 11s88.833 -4 91.5 -16c5.33301 -12.667 3.5 -23.834 -5.5 -33.501s-22.5 -15.167 -40.5 -16.5l-33 -3l2 -177
c2 -120 4.83301 -193 8.5 -219s13.834 -40 30.501 -42c17.333 -2 27 -10 29 -24c2 -12 -4.66699 -21.833 -20 -29.5s-47.666 -16.834 -96.999 -27.501c-41.333 -9.33301 -67 -13.833 -77 -13.5s-17 5.16602 -21 14.499c-8.66699 20.667 8 38 50 52l37 12v455z" />
    <glyph glyph-name="J" unicode="J" horiz-adv-x="382" 
d="M268 577l-63 0.00292969c20 -144 30.667 -268.667 32 -374c0 -35.333 -1.33301 -60.833 -4 -76.5s-8 -30.167 -16 -43.5c-28 -45.333 -62.333 -57 -103 -35c-29.333 15.333 -52.666 39.833 -69.999 73.5s-19 57.5 -5 71.5c8.66699 9.33301 17.834 11.833 27.501 7.5
s17.834 -14.833 24.501 -31.5s18.334 -33.334 35.001 -50.001c17.333 -16 28.666 -18.333 33.999 -7c6.66699 16 8 86.667 4 212c-4 132 -8.33301 207.333 -13 226c-4.66699 15.333 -13.334 24.666 -26.001 27.999c-2.66699 0.666992 -8 1.66699 -16 3
c-14.667 2.66699 -24.5 5.66699 -29.5 9s-7.5 8.66602 -7.5 15.999c0 11.333 7.5 19 22.5 23s47.833 6.66699 98.5 8c98 4 150.333 -2 157 -18c5.33301 -14 1.16602 -24.5 -12.501 -31.5s-36.834 -10.5 -69.501 -10.5z" />
    <glyph glyph-name="K" unicode="K" horiz-adv-x="334" 
d="M104 421c2 0 30.6641 35.665 85.9971 106.998c51.333 68 84 102 98 102c8.66699 0.666992 14 -9 16 -29c0.666992 -11.333 -3.66602 -25.5 -12.999 -42.5s-28.666 -46.167 -57.999 -87.5c-49.333 -66.667 -72 -105.667 -68 -117
c20.667 -53.333 41.167 -109.833 61.5 -169.5s30.5 -93.167 30.5 -100.5c0 -13.333 -3.16699 -23.833 -9.5 -31.5s-13.833 -9.83398 -22.5 -6.50098c-11.333 4.66699 -22.166 16.834 -32.499 36.501s-24.5 55.834 -42.5 108.501c-20.667 62.667 -34 94 -40 94
c-4.66699 0 -7.66699 -20 -9 -60c-0.666992 -42 -3.5 -80 -8.5 -114s-10.833 -54.333 -17.5 -61c-7.33301 -7.33301 -17 -5.66602 -29 5.00098c-7.33301 8 -12 23.167 -14 45.5s-2.66699 73.5 -2 153.5c0.666992 91.333 4.16699 173.666 10.5 246.999
s14.166 118.333 23.499 135c5.33301 10.667 10.5 16.5 15.5 17.5s11.833 -2.5 20.5 -10.5c8 -8 9.66699 -47 5 -117c-1.33301 -30 -2.16602 -54.667 -2.49902 -74s0.166992 -29.666 1.5 -30.999z" />
    <glyph glyph-name="L" unicode="L" horiz-adv-x="292" 
d="M166 120c37.333 0 63.3359 -6.33105 78.0029 -18.998c11.333 -9.33301 17.166 -15.5 17.499 -18.5s-3.83398 -8.16699 -12.501 -15.5c-13.333 -10.667 -47.833 -15.834 -103.5 -15.501s-87.834 5.5 -96.501 15.5c-8.66699 10.667 -14.667 104.5 -18 281.5
s-0.666016 270.833 8.00098 281.5s18.167 14.667 28.5 12s17.5 -11.334 21.5 -26.001c4 -22 7.16699 -94.167 9.5 -216.5s4.16602 -190.5 5.49902 -204.5l6 -75h56z" />
    <glyph glyph-name="M" unicode="M" horiz-adv-x="415" 
d="M282 635c14 0 23.8379 -9.1709 29.5049 -27.5039s11.834 -60.833 18.501 -127.5c2 -24 11.667 -101.667 29 -233s25.666 -214.666 24.999 -249.999c-4 -14.667 -13.667 -22 -29 -22c-8 0 -14.167 1.83301 -18.5 5.5s-9 14.334 -14 32.001s-9.5 40.334 -13.5 68.001
s-9.66699 70.167 -17 127.5c-20 158 -31.333 237.333 -34 238c-0.666992 0 -2.66699 -6.66699 -6 -20c-2 -5.33301 -5.66699 -26.833 -11 -64.5s-11.333 -73 -18 -106s-13.334 -50.167 -20.001 -51.5c-22.667 -14 -40.334 3.66699 -53.001 53
c-8 32.667 -14.667 80.334 -20 143.001c-3.33301 42.667 -6.33301 64.334 -9 65.001c-1.33301 0 -3 -3.33301 -5 -10c-4.66699 -17.333 -10.5 -69.333 -17.5 -156s-10.5 -147.667 -10.5 -183c0 -33.333 -4.66699 -56.333 -14 -69c-7.33301 -8.66699 -12.333 -13 -15 -13
s-7.66699 4.33301 -15 13c-8.66699 11.333 -13.334 44.166 -14.001 98.499s1.83301 112.833 7.5 175.5s13.667 122.834 24 180.501s21.166 95.167 32.499 112.5c9.33301 14.667 21.166 21.167 35.499 19.5s25.5 -10.834 33.5 -27.501c4 -8.66699 7.66699 -21.167 11 -37.5
s6.83301 -38.333 10.5 -66s5.83398 -43.5 6.50098 -47.5l22 68c13.333 41.333 25.166 70.333 35.499 87s21.5 25 33.5 25z" />
    <glyph glyph-name="N" unicode="N" horiz-adv-x="363" 
d="M115 645c11.333 0 19.999 -4.83594 25.999 -14.5029s13.667 -30.834 23 -63.501c14.667 -47.333 49.334 -165.333 104.001 -354l-5 201c-0.666992 27.333 -1.33398 60.333 -2.00098 99c-2 52.667 -2 84.834 0 96.501s9.66699 27.167 23 46.5
c3.33301 4.66699 6 8.66699 8 12l16 -20c7.33301 -8.66699 12.333 -31.167 15 -67.5s5.33398 -114.166 8.00098 -233.499c3.33301 -157.333 3.33301 -254.666 0 -291.999s-14.333 -57 -33 -59c-16 -2 -28 1.33301 -36 10c-4.66699 5.33301 -24.667 70.166 -60 194.499
s-57.666 207.166 -66.999 248.499c-2 13.333 -5.66699 22 -11 26c-4 2.66699 -9.33301 -35.666 -16 -114.999s-12.667 -170.666 -18 -273.999c-4.66699 -90 -14 -135.333 -28 -136c-3.33301 0 -7 1.66699 -11 5c-16 13.333 -22.833 85.833 -20.5 217.5
s12.5 252.834 30.5 363.501c7.33301 43.333 14.666 72.333 21.999 87s18 22 32 22z" />
    <glyph glyph-name="O" unicode="O" horiz-adv-x="364" 
d="M222 512c-14 26.667 -26.498 37.8301 -37.498 33.4971s-25.5 -26.166 -43.5 -65.499c-24.667 -54 -38.334 -114.167 -41.001 -180.5s6.66602 -120.166 27.999 -161.499c12.667 -24.667 24.5 -40.834 35.5 -48.501s22.167 -7.16699 33.5 1.5s24 26.334 38 53.001
c20.667 39.333 29.5 98.833 26.5 178.5s-16.167 142.834 -39.5 189.501zM173.002 13.9961c-30.667 0 -59.833 20.502 -87.5 61.502s-45.5 90.5 -53.5 148.5c-5.33301 42 -2.16602 91.5 9.50098 148.5s28.667 108 51 153s44.5 71.833 66.5 80.5c13.333 6 22.666 9 27.999 9
s17 -3.33301 35 -10c36.667 -12.667 66.334 -58.334 89.001 -137.001s28.667 -156.334 18 -233.001c-8.66699 -63.333 -27.834 -116 -57.501 -158s-62.5 -63 -98.5 -63z" />
    <glyph glyph-name="P" unicode="P" horiz-adv-x="337" 
d="M103 635l0.00292969 -263.001c47.333 8 81.333 17.667 102 29c13.333 8 21.666 16 24.999 24s5.66602 25 6.99902 51c2.66699 46 -7.83301 82.333 -31.5 109s-57.834 43.334 -102.501 50.001zM77.0029 673.999c38.667 15.333 78.333 13.1641 119 -6.50293
s71.334 -51.5 92.001 -95.5c12.667 -27.333 18.834 -60.166 18.501 -98.499s-6.83301 -68.166 -19.5 -89.499c-14.667 -23.333 -39.667 -42 -75 -56s-73.333 -21 -114 -21l-3 -126c-0.666992 -22 -1.33398 -40.667 -2.00098 -56s-1.83398 -29 -3.50098 -41
s-3.5 -21.167 -5.5 -27.5s-4.5 -11.666 -7.5 -15.999s-6.5 -6.16602 -10.5 -5.49902s-8.66699 1.66699 -14 3c-10 4.66699 -16.667 34.667 -20 90c-3.33301 47.333 -2.66602 144.666 2.00098 291.999s9.66699 225.333 15 234c5.33301 8 14.666 14.667 27.999 20z" />
    <glyph glyph-name="Q" unicode="Q" horiz-adv-x="379" 
d="M101 324c0 -82.667 6.00098 -139.332 18.001 -169.999c16.667 -44 37 -77.667 61 -101c15.333 -15.333 22.666 -15 21.999 1c-0.666992 4 -1.66699 9.33301 -3 16c-4.66699 18.667 -8 32.834 -10 42.501s-3.16699 17.667 -3.5 24s0.5 10.166 2.5 11.499s5.33301 2 10 2
s9.66699 -1.83301 15 -5.5s9.5 -7.16699 12.5 -10.5l13.5 -15c6 -6.66699 9.33301 -10.334 10 -11.001c14.667 31.333 24.334 90.333 29.001 177c2.66699 59.333 0.166992 115 -7.5 167s-18.834 89 -33.501 111c-15.333 22.667 -33 27.834 -53 15.501
s-40.333 -40.5 -61 -84.5c-9.33301 -21.333 -15.333 -41.833 -18 -61.5s-4 -55.834 -4 -108.501zM349.001 -82.998c0 -18.667 -8.66699 -24.001 -26 -16.001c-16 6.66699 -32.667 21.667 -50 45c-14.667 19.333 -25.667 31 -33 35s-19.666 5.33301 -36.999 4
c-25.333 -1.33301 -46.333 4.16699 -63 16.5s-34.334 35.5 -53.001 69.5c-43.333 81.333 -62 174 -56 278c4 68.667 17.333 128.834 40 180.501s50.667 85.834 84 102.501c16 8 29.5 11.667 40.5 11s28.5 -6.33398 52.5 -17.001c18 -8.66699 30.667 -17.334 38 -26.001
s15.333 -25 24 -49c21.333 -58 32 -136.333 32 -235s-10.667 -173 -32 -223l-22 -49c1.33301 -3.33301 6.5 -12.666 15.5 -27.999s16 -27.833 21 -37.5s10.167 -20.667 15.5 -33s8.33301 -21.833 9 -28.5z" />
    <glyph glyph-name="R" unicode="R" horiz-adv-x="323" 
d="M100 453c0 -60.667 2.00098 -91.667 6.00098 -93c3.33301 0 8 2.66699 14 8c31.333 28 53.666 60.667 66.999 98s13.666 68 0.999023 92c-6 10 -15.833 15.833 -29.5 17.5s-27.167 -1.5 -40.5 -9.5c-7.33301 -4 -12.166 -13 -14.499 -27s-3.5 -42.667 -3.5 -86z
M115.001 285c-6 0 -10 -8.16699 -12 -24.5s-3.66699 -49.166 -5 -98.499c-1.33301 -60 -3.16602 -95.833 -5.49902 -107.5s-8.5 -18.167 -18.5 -19.5c-10.667 -1.33301 -18.667 0.5 -24 5.5s-9.83301 19 -13.5 42s-5.83398 53.167 -6.50098 90.5s-0.666992 92 0 164
c0 162 2.33301 251.667 7 269c3.33301 10 11 16.333 23 19s20.667 -0.333008 26 -9c4 -7.33301 9.66699 -8 17 -2c25.333 17.333 53.166 22.333 83.499 15s51.5 -26 63.5 -56c26 -56 13.333 -122.333 -38 -199l-33 -50l23 -41c16 -30 35.5 -81.333 58.5 -154
s33.5 -116.667 31.5 -132c-1.33301 -15.333 -7.16602 -24.833 -17.499 -28.5s-20.833 -0.166992 -31.5 10.5c-9.33301 9.33301 -21.333 37.666 -36 84.999c-18.667 61.333 -37 113.5 -55 156.5s-30.333 64.5 -37 64.5z" />
    <glyph glyph-name="S" unicode="S" horiz-adv-x="373" 
d="M209 606c-24.667 0 -49.667 -18.4951 -75 -55.4951s-38.333 -73.833 -39 -110.5c0 -26.667 8.33301 -46.334 25 -59.001s44.334 -20 83.001 -22c41.333 -1.33301 69 -5.66602 83 -12.999c17.333 -8.66699 31.166 -26.667 41.499 -54s15.5 -59 15.5 -95
c0 -26.667 -1.83301 -46.834 -5.5 -60.501s-11.5 -30.834 -23.5 -51.501c-28.667 -46 -67.834 -76 -117.501 -90s-89.834 -6.33301 -120.501 23c-20 19.333 -29 37.333 -27 54c1.33301 11.333 5.16602 19.166 11.499 23.499s14.333 4.83301 24 1.5s19.834 -10 30.501 -20
c11.333 -10.667 20.666 -17.334 27.999 -20.001s17 -2.66699 29 0c18.667 4 36.5 12.833 53.5 26.5s30.167 29.167 39.5 46.5c8.66699 17.333 13.334 40.166 14.001 68.499s-3.33301 50.833 -12 67.5c-5.33301 10.667 -12.666 17.667 -21.999 21s-29.333 6.33301 -60 9
c-40 2.66699 -70 9.66699 -90 21s-37 30.333 -51 57c-19.333 35.333 -20 80.833 -2 136.5s46.667 97.834 86 126.501c52 37.333 99 38 141 2c14.667 -12.667 24 -27 28 -43s1 -27.333 -9 -34c-6 -4.66699 -17 1.66602 -33 18.999c-15.333 16.667 -30.666 25 -45.999 25z" />
    <glyph glyph-name="T" unicode="T" horiz-adv-x="445" 
d="M332 567l-62.9941 0.000976562l7 -133c8.66699 -203.333 13 -325.833 13 -367.5s-4 -67.5 -12 -77.5c-20.667 -27.333 -36.334 -12 -47.001 46c-10.667 62.667 -16.334 176.334 -17.001 341.001v191h-75c-40.667 0 -69.834 3.5 -87.501 10.5s-23.834 17.5 -18.501 31.5
c3.33301 9.33301 12.666 15.666 27.999 18.999c18.667 2.66699 75 4.66699 169 6c66.667 0.666992 109.167 0.166992 127.5 -1.5s32.5 -6.83398 42.5 -15.501c10 -8 15.5 -13.833 16.5 -17.5s-1.16699 -9.16699 -6.5 -16.5c-8.66699 -10.667 -34.334 -16 -77.001 -16z" />
    <glyph glyph-name="U" unicode="U" horiz-adv-x="344" 
d="M88 540c0 -176.667 15.668 -308 47.001 -394c20.667 -55.333 43 -73 67 -53c18.667 14.667 30.834 40.167 36.501 76.5s10.167 111.833 13.5 226.5c2.66699 99.333 5.16699 161.833 7.5 187.5s7.16602 40.834 14.499 45.501c15.333 9.33301 25.666 7.33301 30.999 -6
c6.66699 -18.667 9.33398 -90 8.00098 -214c-2.66699 -143.333 -5.33398 -223.333 -8.00098 -240c-10 -61.333 -35.5 -104.833 -76.5 -130.5s-78.167 -21.834 -111.5 11.499c-35.333 36.667 -61.333 115.667 -78 237c-6.66699 52 -10 121.833 -10 209.5
s3.33301 137.5 10 149.5c6.66699 11.333 14.5 17.333 23.5 18s15.5 -4.33301 19.5 -15c4 -12 6 -48.333 6 -109z" />
    <glyph glyph-name="V" unicode="V" horiz-adv-x="367" 
d="M185 -35c-11.333 0 -20.6689 6.00195 -28.002 18.002c-6 10.667 -28.667 114.834 -68 312.501s-59 306.167 -59 325.5c-1.33301 18.667 1.5 31.334 8.5 38.001s15.167 6.5 24.5 -0.5s16.333 -18.167 21 -33.5c3.33301 -5.33301 20 -76.833 50 -214.5s47 -209.5 51 -215.5
c2 -2.66699 8 15.166 18 53.499s21.167 86.333 33.5 144s22.5 110.5 30.5 158.5c8.66699 51.333 17 79.333 25 84c8.66699 5.33301 17.334 6.16602 26.001 2.49902s14.667 -10.834 18 -21.501c8 -24 -13 -145.667 -63 -365c-27.333 -124 -42.333 -193.333 -45 -208
c-4.66699 -28.667 -10.167 -48.834 -16.5 -60.501s-15.166 -17.5 -26.499 -17.5z" />
    <glyph glyph-name="W" unicode="W" horiz-adv-x="463" 
d="M209 290c14 0 23.499 -4.33594 28.499 -13.0029s14.5 -37.667 28.5 -87c19.333 -64 29.666 -96 30.999 -96c1.33301 1.33301 8.33301 50.333 21 147l38.5 288.5c13 95.667 20.5 143.167 22.5 142.5c6.66699 14 15 20.833 25 20.5s18.333 -7.83301 25 -22.5
c4 -13.333 4.66699 -37.166 2 -71.499s-10 -102.166 -22 -203.499c-23.333 -187.333 -40 -303.166 -50 -347.499s-26 -69.5 -48 -75.5c-15.333 -4 -29.666 1.66699 -42.999 17s-26 41.333 -38 78l-23 68l-21 -71c-10.667 -38 -22.167 -63.167 -34.5 -75.5
s-26.833 -13.833 -43.5 -4.5c-11.333 5.33301 -21 25.666 -29 60.999c-14.667 70.667 -27.667 176 -39 316s-13.666 223 -6.99902 249c2.66699 10 6 16.667 10 20s10.333 4.33301 19 3c9.33301 -1.33301 15.5 -6 18.5 -14s6.16699 -27 9.5 -57
c24.667 -256 39 -393.333 43 -412c1.33301 -3.33301 4 -0.666016 8 8.00098c6 12.667 12.333 31 19 55c9.33301 37.333 16.333 59.5 21 66.5s14 10.5 28 10.5z" />
    <glyph glyph-name="X" unicode="X" horiz-adv-x="358" 
d="M64 645c4.66699 2 11.1709 -2.32812 19.5039 -12.9951s17.333 -25.334 27 -44.001l28 -56.5l27 -57l18.5 -38.5l40 76c20.667 40 38 66.333 52 79s27 14 39 4c10 -8.66699 13 -20.334 9 -35.001s-19.333 -49.667 -46 -105c-22.667 -44.667 -36.334 -74.5 -41.001 -89.5
s-4.33398 -27.833 0.999023 -38.5c1.33301 -4 7.66602 -19.333 18.999 -46l28 -67c21.333 -50.667 35 -96.5 41 -137.5s2.33301 -63.833 -11 -68.5c-12.667 -4.66699 -23.834 -0.333984 -33.501 12.999s-19.834 38.666 -30.501 75.999c-18.667 70.667 -37 120 -55 148
c-4 7.33301 -7 10 -9 8c-2.66699 -2 -19.667 -39.667 -51 -113c-12.667 -30 -23.167 -53.5 -31.5 -70.5s-16.166 -30.333 -23.499 -40s-13.833 -14.334 -19.5 -14.001s-12.167 2.83301 -19.5 7.5c-12 9.33301 -14.833 27.333 -8.5 54s25.166 77.667 56.499 153l54 129
c-58 126.667 -89.667 207.667 -95 243c-2 19.333 -2.16699 31.333 -0.5 36s6.83398 7 15.501 7z" />
    <glyph glyph-name="Y" unicode="Y" horiz-adv-x="325" 
d="M35 658c16 16 39.3311 -4.66797 69.998 -62.001c14 -29.333 41 -78.666 81 -147.999l31 86c12.667 34.667 22.334 57.834 29.001 69.501s14.334 18.167 23.001 19.5c14 2 22.667 -1 26 -9c3.33301 -7.33301 -15.667 -97.333 -57 -270
c-17.333 -71.333 -30.666 -123.666 -39.999 -156.999s-18.5 -61.833 -27.5 -85.5s-16.333 -34.334 -22 -32.001s-13.834 3.5 -24.501 3.5c-11.333 6 -16.5 16.667 -15.5 32s9.83301 57.666 26.5 126.999l27 116l-37 64c-35.333 60.667 -61.5 114.5 -78.5 161.5
s-20.833 75.167 -11.5 84.5z" />
    <glyph glyph-name="Z" unicode="Z" horiz-adv-x="377" 
d="M193 82c25.333 0 43.6719 -3.16504 55.0049 -9.49805s17 -16.833 17 -31.5c0 -16 -9.5 -26.167 -28.5 -30.5s-50.833 -3.16602 -95.5 3.50098c-55.333 7.33301 -89 16.666 -101 27.999s-11.667 33.666 1 66.999c26 67.333 46.833 117 62.5 149s38.167 71.333 67.5 118
c62.667 98.667 94 156 94 172c-3.33301 5.33301 -34.5 9 -93.5 11s-90.833 4.33301 -95.5 7c-18.667 4 -29.334 11.667 -32.001 23s3.66602 20 18.999 26c17.333 7.33301 61.666 10.666 132.999 9.99902s114 -4.66699 128 -12c10 -5.33301 16.5 -11.5 19.5 -18.5
s4.16699 -18.833 3.5 -35.5c-0.666992 -16 -6.33398 -35.333 -17.001 -58s-33.334 -62.667 -68.001 -120c-54.667 -89.333 -93 -159.333 -115 -210c-18.667 -41.333 -25.5 -66.5 -20.5 -75.5s27.167 -13.5 66.5 -13.5z" />
    <glyph glyph-name="underscore" unicode="_" horiz-adv-x="436" 
d="M392 -49c-2.66699 -7.33301 -27.999 -12.002 -75.999 -14.002s-96 -2 -144 0s-79 4 -93 6c-22.667 2.66699 -36.667 5.33398 -42 8.00098s-7.33301 8.66699 -6 18c2 13.333 12.667 22 32 26c17.333 4 74.666 6.66699 171.999 8c58 0.666992 97 0 117 -2
s33.333 -6.33301 40 -13c9.33301 -9.33301 14 -15.666 14 -18.999s-4.66699 -9.33301 -14 -18z" />
    <glyph glyph-name="grave" unicode="`" horiz-adv-x="150" 
d="M101 494c-11.333 0 -27 17.501 -47 52.501s-27.667 58.833 -23 71.5c8 21.333 22.333 24.333 43 9c22 -16 36.333 -40.333 43 -73c1.33301 -6.66699 2 -13.334 2 -20.001c0.666992 -17.333 0 -28.333 -2 -33s-7.33301 -7 -16 -7z" />
    <glyph glyph-name="a" unicode="a" horiz-adv-x="424" 
d="M191 283c0 29.333 -1.16602 48.834 -3.49902 58.501s-7.5 16.834 -15.5 21.501c-14 7.33301 -23.167 9.66602 -27.5 6.99902s-11.5 -15.334 -21.5 -38.001c-19.333 -42.667 -28.333 -85.667 -27 -129s12.333 -69 33 -77c12 -4.66699 22.667 -1.5 32 9.5
s16.666 29.333 21.999 55s8 56.5 8 92.5zM101.001 412.001c14.667 11.333 29.3311 17.165 43.998 17.498s36.334 -5.16699 65.001 -16.5c24.667 -10 40.667 -24.167 48 -42.5s8.66602 -48.166 3.99902 -89.499c-2.66699 -28.667 0 -59.834 8 -93.501
s17.667 -54.167 29 -61.5c11.333 -6.66699 24.666 -2.66699 39.999 12c26 24 42.667 26 50 6c4.66699 -12 5.83398 -21.333 3.50098 -28s-10.166 -17.667 -23.499 -33c-17.333 -21.333 -37.833 -32.166 -61.5 -32.499s-44.167 9.83398 -61.5 30.501l-24 29l-23 -25
c-25.333 -27.333 -56 -33 -92 -17s-60 46 -72 90c-9.33301 36.667 -6.66602 83.5 8.00098 140.5s34 94.833 58 113.5z" />
    <glyph glyph-name="b" unicode="b" horiz-adv-x="310" 
d="M198 324c-6.66699 16.667 -13.668 27.999 -21.001 33.999s-14.833 6.33301 -22.5 1s-14.834 -16 -21.501 -32c-11.333 -28 -18.5 -52.167 -21.5 -72.5s-2.83301 -44.166 0.5 -71.499c4.66699 -34.667 9.83398 -55.5 15.501 -62.5s16.167 -5.5 31.5 4.5
c26 16.667 42.833 44.5 50.5 83.5s3.83398 77.5 -11.499 115.5zM51.999 663.999c13.333 0 22.667 -6.66699 28 -20s8 -36 8 -68c0 -39.333 2 -81 6 -125c4 -34 7.66699 -51 11 -51c2.66699 0 6.33398 2 11.001 6c22 18 42.667 24.667 62 20s36.333 -17 51 -37
s27.667 -46.667 39 -80c13.333 -45.333 14 -88 2 -128s-32.833 -73 -62.5 -99s-59.167 -36.667 -88.5 -32c-20.667 3.33301 -35.834 12.5 -45.501 27.5s-17.834 42.167 -24.501 81.5c-6.66699 37.333 -12.167 122 -16.5 254s-4.16602 207.333 0.500977 226
c1.33301 6.66699 4 12.5 8 17.5s7.66699 7.5 11 7.5z" />
    <glyph glyph-name="c" unicode="c" horiz-adv-x="259" 
d="M180 351c0 13.333 -4.99902 23.998 -14.999 31.998c-7.33301 5.33301 -12.833 7.33301 -16.5 6s-9.16699 -6.66602 -16.5 -15.999c-18.667 -24.667 -30.667 -58.5 -36 -101.5s-1.66602 -78.833 11.001 -107.5c8.66699 -21.333 18.667 -34.333 30 -39
s25.666 -1.66699 42.999 9c13.333 7.33301 23.5 11.833 30.5 13.5s11.833 0.333984 14.5 -3.99902s4 -11.833 4 -22.5c0 -16.667 -8 -32.334 -24 -47.001s-33 -22 -51 -22c-20 0 -39.333 6.33301 -58 19s-33.334 30 -44.001 52c-22.667 42 -28.667 97.5 -18 166.5
s32.667 116.167 66 141.5c30.667 24.667 62 24.334 94 -0.999023c10.667 -8.66699 17.5 -16.667 20.5 -24s3.83301 -18 2.5 -32c-2 -23.333 -8.33301 -36 -19 -38c-12 -2 -18 3 -18 15z" />
    <glyph glyph-name="d" unicode="d" horiz-adv-x="284" 
d="M171 276c-1.33301 12.667 -3.50098 21.8311 -6.50098 27.498s-8.5 8.83398 -16.5 9.50098c-15.333 2.66699 -27.166 -3.66602 -35.499 -18.999s-13.5 -40.666 -15.5 -75.999c-2.66699 -52.667 4 -84.334 20 -95.001c12 -8.66699 24 2 36 32c4 10 7.33301 22 10 36
c8 32 10.667 60.333 8 85zM134.999 372.997l36 -0.00292969c0.666992 8 1.66699 35.5 3 82.5s3 86.167 5 117.5s4.33301 51.333 7 60c7.33301 10 16.666 13.667 27.999 11s18.333 -9.66699 21 -21c4 -18 10.333 -188.667 19 -512
c0.666992 -24 -0.166016 -39.167 -2.49902 -45.5s-8.5 -10.166 -18.5 -11.499c-14.667 -2.66699 -24 3 -28 17c-5.33301 22.667 -16 24.667 -32 6c-9.33301 -11.333 -25.333 -16.166 -48 -14.499s-40.667 9.16699 -54 22.5c-15.333 15.333 -26.833 37.833 -34.5 67.5
s-9.16699 59.167 -4.5 88.5c5.33301 42.667 17 75.334 35 98.001s40.667 34 68 34z" />
    <glyph glyph-name="e" unicode="e" horiz-adv-x="315" 
d="M118 285c30.667 0 53.667 12.333 69 37s13.333 45.667 -6 63c-10.667 10 -18.667 15 -24 15s-12.333 -4.66699 -21 -14c-18 -18 -31 -42.333 -39 -73c-3.33301 -12.667 -3.83301 -20.5 -1.5 -23.5s9.83301 -4.5 22.5 -4.5zM129 227
c-22.667 0 -35.002 -4.83203 -37.002 -14.499s5.33301 -30.5 22 -62.5c14.667 -29.333 30.5 -45.5 47.5 -48.5s36.833 7.83301 59.5 32.5c34.667 38.667 55.334 46 62.001 22c1.33301 -4.66699 2 -10 2 -16c0 -22 -10.667 -44 -32 -66s-44.333 -34.333 -69 -37
c-41.333 -6 -76.833 9.83301 -106.5 47.5s-45.5 87.167 -47.5 148.5c-2 84.667 16.667 148.667 56 192c37.333 41.333 80.333 46.666 129 15.999c22.667 -13.333 37.334 -32.5 44.001 -57.5s4 -49.833 -8 -74.5c-11.333 -24 -28.5 -43.667 -51.5 -59s-46.5 -23 -70.5 -23z
" />
    <glyph glyph-name="f" unicode="f" horiz-adv-x="359" 
d="M329 499c0 -33.333 -1.99902 -55.668 -5.99902 -67.001s-11.667 -18.666 -23 -21.999c-6 -0.666992 -9.83301 2.33301 -11.5 9s-2.5 22 -2.5 46c0 28.667 -3.83301 56 -11.5 82s-15.834 39 -24.501 39c-12 0.666992 -22.167 -22.5 -30.5 -69.5
s-12.166 -89.833 -11.499 -128.5h54c23.333 0 38.166 -1.16699 44.499 -3.5s10.166 -8.5 11.499 -18.5c2 -12 -3.83301 -22 -17.5 -30s-31.834 -12 -54.501 -12c-15.333 0 -23 -4 -23 -12c0 -7.33301 11 -61.666 33 -162.999c23.333 -102 36.5 -166.167 39.5 -192.5
s0.166992 -44.5 -8.5 -54.5c-23.333 -32 -42.333 -13.333 -57 56c-1.33301 5.33301 -2.33301 10.666 -3 15.999c-7.33301 41.333 -22 109.666 -44 204.999c-8 36 -14 61.667 -18 77s-8.33301 28.333 -13 39s-8.66699 16.667 -12 18s-9 3 -17 5c-21.333 4 -38.333 6 -51 6
c-11.333 0 -22.166 4.66699 -32.499 14s-12.833 17 -7.5 23c10.667 7.33301 46.667 13 108 17c6 134 26 217.333 60 250c12 12 29 17 51 15c24.667 -2 43.834 -15.667 57.501 -41s20.5 -59.666 20.5 -102.999z" />
    <glyph glyph-name="g" unicode="g" horiz-adv-x="329" 
d="M164 354c0 16 -2.66699 26.501 -8 31.501s-12 3.16699 -20 -5.5c-18 -22 -30 -54 -36 -96s-5 -79.833 3 -113.5s21.333 -50.5 40 -50.5c22 0 36.5 15.667 43.5 47s4.5 67.666 -7.5 108.999c-10 31.333 -15 57.333 -15 78zM111 -63.999
c4 0 20.334 -8.33105 49.001 -24.998c33.333 -20 54 -25.833 62 -17.5s10.667 38.166 8 89.499c-1.33301 57.333 -4.33301 88.333 -9 93c-4 4 -15.667 0.666992 -35 -10c-27.333 -16 -56.333 -14.5 -87 4.5s-51.334 48.833 -62.001 89.5c-10.667 40 -9.66699 87.667 3 143
s32 97 58 125c32.667 34.667 67.667 30.667 105 -12c19.333 -22.667 32.333 -43.334 39 -62.001s13 -52.334 19 -101.001c6.66699 -57.333 14.334 -109.666 23.001 -156.999c13.333 -72 17.5 -131.333 12.5 -178s-18.5 -74.334 -40.5 -83.001
c-22.667 -8.66699 -48.167 -9.66699 -76.5 -3s-48.833 18.334 -61.5 35.001c-4 5.33301 -7.16699 13.5 -9.5 24.5s-3.33301 21.167 -3 30.5s2.16602 14 5.49902 14z" />
    <glyph glyph-name="h" unicode="h" horiz-adv-x="317" 
d="M220 169c0 94.667 -5.99805 146.667 -17.998 156c-4.66699 4 -11.667 3.66699 -21 -1c-12 -6.66699 -25.333 -23.334 -40 -50.001c-8.66699 -16.667 -13.834 -33 -15.501 -49s-1.83398 -44 -0.500977 -84l2 -93h-12h-10.5c-1.66699 0 -4.33398 0.166992 -8.00098 0.5
s-6.16699 1 -7.5 2s-3.16602 2.16699 -5.49902 3.5s-3.83301 3.33301 -4.5 6s-1.66699 5.83398 -3 9.50098s-2.33301 7.83398 -3 12.501c-8 36.667 -18.167 138 -30.5 304s-16.166 252.667 -11.499 260c5.33301 8 12.5 10.5 21.5 7.5s15.833 -10.167 20.5 -21.5
c2.66699 -2.66699 6.66699 -26.5 12 -71.5s10.333 -91.167 15 -138.5s7.33398 -72.666 8.00098 -75.999c3.33301 -3.33301 16.333 4 39 22c23.333 15.333 42 22.833 56 22.5s29.333 -8.83301 46 -25.5s27.667 -39.834 33 -69.501s6.66602 -76.5 3.99902 -140.5
c-1.33301 -48.667 -6 -82.334 -14 -101.001s-20.333 -24.667 -37 -18c-6.66699 2.66699 -10.834 12 -12.501 28s-2.5 51 -2.5 105z" />
    <glyph glyph-name="i" unicode="i" horiz-adv-x="176" 
d="M101 14c-56 0 -79 85.332 -69 255.999c3.33301 76.667 9 119.334 17 128.001c13.333 16 25 16.667 35 2c4.66699 -7.33301 8.66699 -61.666 12 -162.999c2.66699 -73.333 5.16699 -117 7.5 -131s8.83301 -21.667 19.5 -23c18 -2.66699 25.667 -12.834 23 -30.501
s-12.667 -29.5 -30 -35.5c-4.66699 -2 -9.66699 -3 -15 -3zM43 547.999c6 9.33301 17.333 11.6699 34 7.00293s25.667 -12.334 27 -23.001c2 -12 -1.66699 -22.333 -11 -31s-19 -10.667 -29 -6c-8.66699 3.33301 -15.5 11.166 -20.5 23.499s-5.16699 22.166 -0.5 29.499z
" />
    <glyph glyph-name="j" unicode="j" horiz-adv-x="282" 
d="M187 360c7.33301 8.66699 15.333 9.00195 24 1.00195c6 -5.33301 9.66699 -21.833 11 -49.5s1.33301 -86.167 0 -175.5c-1.33301 -96.667 -3.33301 -158.834 -6 -186.501s-9 -52.5 -19 -74.5c-25.333 -54.667 -59.666 -73 -102.999 -55
c-24 9.33301 -42.5 33.833 -55.5 73.5s-12.833 69.834 0.5 90.501c9.33301 14 20 8 32 -18c4 -8.66699 8.66699 -20.334 14 -35.001c16.667 -44.667 33 -60.667 49 -48c4.66699 4.66699 9 11.667 13 21c4.66699 4 11.167 80.167 19.5 228.5s15.166 224.166 20.499 227.499z
M190 553.002c11.333 8.66699 19.832 12.832 25.499 12.499s12.834 -5.16602 21.501 -14.499c9.33301 -8.66699 14.166 -19.167 14.499 -31.5s-4.16699 -22.5 -13.5 -30.5c-10.667 -8.66699 -21.667 -10.667 -33 -6s-19.666 14.667 -24.999 30
c-4 11.333 -5.33301 19.333 -4 24s6 10 14 16z" />
    <glyph glyph-name="k" unicode="k" horiz-adv-x="272" 
d="M221 475c9.33301 0 15.3252 -7.83105 17.9922 -23.498s1.5 -35.667 -3.5 -60s-12.833 -48.166 -23.5 -71.499l-26 -57l25 -51c14 -29.333 23.333 -57.333 28 -84s3.33398 -45.334 -3.99902 -56.001c-12 -16.667 -25.667 -12 -41 14c-6.66699 12 -12.667 27 -18 45
c-18 59.333 -37 93 -57 101c-5.33301 2.66699 -8.66602 -0.333008 -9.99902 -9c-1.33301 -10 -0.333008 -32 3 -66c2.66699 -32 3.5 -54.667 2.5 -68s-4.5 -24 -10.5 -32c-7.33301 -8.66699 -12.166 -13.334 -14.499 -14.001s-7.5 2.66602 -15.5 9.99902
c-12.667 12.667 -24.667 101 -36 265s-11.666 251.333 -0.999023 262c13.333 14 24 6.66699 32 -22c6.66699 -24.667 13.334 -71.667 20.001 -141c8.66699 -86 13.334 -129.333 14.001 -130c11.333 4 21.5 11.833 30.5 23.5s15.5 22.334 19.5 32.001l22 54.5
c10.667 29.333 19.334 49.666 26.001 60.999s13.334 17 20.001 17z" />
    <glyph glyph-name="l" unicode="l" horiz-adv-x="141" 
d="M53 637c3.33301 6 9.66699 8.66699 19 8s16 -4.33398 20 -11.001c2 -1.33301 4.66699 -96 8 -284s6.33301 -282.333 9 -283c5.33301 -13.333 4.33301 -25.333 -3 -36c-6.66699 -8.66699 -15.334 -7.66699 -26.001 3c-27.333 26 -43.666 85.333 -48.999 178
c-2.66699 45.333 -1 125.333 5 240s11.667 176.334 17 185.001z" />
    <glyph glyph-name="m" unicode="m" horiz-adv-x="414" 
d="M384 208l-0.000976562 -160.006h-49l-4 145c-3.33301 98.667 -9.33301 152.334 -18 161.001c-5.33301 4 -13 1.66699 -23 -7c-20 -18 -32.833 -38.667 -38.5 -62s-8.5 -66.333 -8.5 -129c0 -49.333 -0.833008 -82.666 -2.5 -99.999s-5.5 -28.333 -11.5 -33
c-16 -13.333 -27.333 -9.33301 -34 12c-6 20.667 -10.333 68 -13 142c-3.33301 93.333 -7.66602 148.333 -12.999 165c-9.33301 32 -24.333 28.333 -45 -11c-2.66699 -4 -5 -8.33301 -7 -13c-9.33301 -20 -15 -38.667 -17 -56s-2.33301 -51 -1 -101
c2 -55.333 2.16699 -88.166 0.5 -98.499s-7.5 -16.166 -17.5 -17.499c-8 -1.33301 -14.667 0.666992 -20 6s-10 16.333 -14 33s-7 38 -9 64s-4 60.667 -6 104c-2.66699 58 -3.5 97.667 -2.5 119s3.83301 33.333 8.5 36c4.66699 3.33301 9.83398 3.33301 15.501 0
s12.167 -9.66602 19.5 -18.999l11 -14l22 23c11.333 11.333 25.333 18.833 42 22.5s30.667 1.83398 42 -5.49902c3.33301 -2.66699 7.16602 -7 11.499 -13s8.83301 -13.333 13.5 -22s8 -14.667 10 -18l31 30c20.667 20 41.167 30.333 61.5 31s36.5 -8.33301 48.5 -27
c7.33301 -10.667 12 -27 14 -49s3 -68 3 -138z" />
    <glyph glyph-name="n" unicode="n" horiz-adv-x="309" 
d="M167 373c-6.66699 0 -20.6641 -11.333 -41.9971 -34c-16.667 -19.333 -26.167 -40 -28.5 -62s0.5 -64.333 8.5 -127c9.33301 -70 5 -105.333 -13 -106c-1.33301 0 -3 0.333008 -5 1c-14 2.66699 -24.333 17.167 -31 43.5s-13 76.166 -19 149.499
c-8 94 -8.33301 148.333 -1 163c7.33301 11.333 15.666 17.833 24.999 19.5s16 -2.83301 20 -13.5c2.66699 -6.66699 5.83398 -9.66699 9.50098 -9s11.167 5.33398 22.5 14.001c28 21.333 56.167 25.833 84.5 13.5s48.833 -38.5 61.5 -78.5
c7.33301 -21.333 13.166 -65.333 17.499 -132s4.16602 -109.334 -0.500977 -128.001c-2 -8.66699 -6.33301 -15.167 -13 -19.5s-13.667 -6 -21 -5s-13 4.83301 -17 11.5c-6 8.66699 -10.667 51.334 -14 128.001c-6.66699 114 -21.334 171 -44.001 171z" />
    <glyph glyph-name="o" unicode="o" horiz-adv-x="289" 
d="M194 192c0 52 -6.66699 92.332 -20 120.999c-10.667 24.667 -22.834 38.334 -36.501 41.001s-24.834 -6.33301 -33.501 -27c-9.33301 -24 -13.166 -58 -11.499 -102s7.83398 -75.333 18.501 -94c31.333 -52 54.333 -63.333 69 -34c9.33301 17.333 14 49 14 95z
M127 430.999c11.333 0 29.001 -9.66797 53.001 -29.001s39.667 -37 47 -53c28.667 -60 38.667 -125.833 30 -197.5s-31.667 -114.5 -69 -128.5c-18 -7.33301 -38.667 -4.66602 -62 8.00098s-44.333 32 -63 58c-12.667 18.667 -20.834 34.834 -24.501 48.501
s-6.16699 37.167 -7.5 70.5c-6 119.333 26 193.666 96 222.999z" />
    <glyph glyph-name="p" unicode="p" horiz-adv-x="300" 
d="M187 283c-12.667 17.333 -26.168 26.999 -40.501 28.999s-25.833 -4.33301 -34.5 -19c-10.667 -17.333 -17.167 -35.166 -19.5 -53.499s-1.5 -45.5 2.5 -81.5l7 -65l33 12c22.667 7.33301 40.834 21.5 54.501 42.5s20.167 43.5 19.5 67.5s-8 46.667 -22 68z
M126.999 32.999l-25.9971 -0.00195312l3 -91c4 -88 -6.33301 -132 -31 -132c-8.66699 0 -16.334 4 -23.001 12c-6 6.66699 -11.5 97.834 -16.5 273.501s-4.83301 267.834 0.5 276.501c5.33301 9.33301 13.166 11.833 23.499 7.5s16.166 -12.5 17.499 -24.5l3 -21l25 19
c32 24.667 65.667 22.667 101 -6c31.333 -26 51.833 -60.333 61.5 -103s5.5 -80.667 -12.5 -114c-11.333 -22 -30.833 -43.667 -58.5 -65s-50.167 -32 -67.5 -32z" />
    <glyph glyph-name="q" unicode="q" horiz-adv-x="349" 
d="M162 273c3.33301 46 4.33398 75.501 3.00098 88.501s-5.33301 20.833 -12 23.5c-10 4 -18.833 0.833008 -26.5 -9.5s-15.834 -29.5 -24.501 -57.5c-12 -40.667 -15.667 -80.167 -11 -118.5s15.667 -60.5 33 -66.5c9.33301 -3.33301 17 4 23 22
c6 21.333 11 60.666 15 117.999zM247.001 14.001c33.333 2.66699 55.334 -2.66602 66.001 -15.999c5.33301 -7.33301 7.5 -12.833 6.5 -16.5s-6.5 -9.5 -16.5 -17.5c-14 -12 -26 -18 -36 -18c-9.33301 0 -14 -16.333 -14 -49s-4.66699 -51 -14 -55
c-9.33301 -3.33301 -18.833 1 -28.5 13s-14.834 26.333 -15.501 43c0 35.333 -17.667 55 -53 59c-13.333 1.33301 -22.5 5.33301 -27.5 12s-4.66699 13.667 1 21s15.5 12.666 29.5 15.999c13.333 3.33301 21.833 7.5 25.5 12.5s5.5 14.167 5.5 27.5
c0 15.333 -1.5 24.333 -4.5 27s-12.833 3 -29.5 1c-36 -4.66699 -63.667 7 -83 35s-29 70.333 -29 127c0 41.333 6.16699 80.5 18.5 117.5s27.833 62.833 46.5 77.5c22.667 17.333 44.167 22.833 64.5 16.5s38.166 -24.166 53.499 -53.499
c8 -15.333 13.833 -36.333 17.5 -63s6.83398 -75.334 9.50098 -146.001z" />
    <glyph glyph-name="r" unicode="r" horiz-adv-x="291" 
d="M33 387c4.66699 12 13.999 16.335 27.999 13.002s22 -11.666 24 -24.999l3 -22l25 20c16.667 12.667 39 19 67 19s48.667 -6.33301 62 -19c18 -18 23.333 -35.667 16 -53c-5.33301 -14.667 -16 -18.334 -32 -11.001l-12 9c-27.333 25.333 -53 23.333 -77 -6
c-26 -32.667 -37.333 -81.334 -34 -146.001l3 -33c6.66699 -46.667 9.83398 -76.5 9.50098 -89.5s-4.83301 -21.167 -13.5 -24.5c-25.333 -9.33301 -42.666 6 -51.999 46c-6.66699 24.667 -12.334 81.667 -17.001 171s-4.66699 139.666 0 150.999z" />
    <glyph glyph-name="s" unicode="s" horiz-adv-x="322" 
d="M205 391c0 -8.66699 -1.83301 -13.8311 -5.5 -15.498s-12.5 -1.16699 -26.5 1.5c-20.667 4 -40 -0.333008 -58 -13s-27 -27.667 -27 -45c0 -12.667 6.83301 -24.667 20.5 -36s41.167 -28 82.5 -50c59.333 -32 92.333 -74.667 99 -128c2 -18 1.66699 -30.833 -1 -38.5
s-9.66699 -16.834 -21 -27.501c-16 -15.333 -37.833 -25.333 -65.5 -30s-55.167 -3.33398 -82.5 3.99902c-22.667 6.66699 -38.834 14.5 -48.501 23.5s-13.167 19.833 -10.5 32.5c2.66699 11.333 11.667 16 27 14c82 -8.66699 128.333 -9.66699 139 -3
c8 5.33301 6.33301 19.333 -5 42c-10.667 22 -39 45.667 -85 71c-42.667 23.333 -71.167 43.5 -85.5 60.5s-21.5 38.833 -21.5 65.5c0 51.333 24 87.333 72 108c18.667 8 29.834 12 33.501 12s15.5 -4 35.5 -12c22.667 -10.667 34 -22.667 34 -36z" />
    <glyph glyph-name="t" unicode="t" horiz-adv-x="299" 
d="M218 431c28.667 0 44.999 -4.66602 48.999 -13.999c4.66699 -11.333 2 -21.5 -8 -30.5s-24 -13.5 -42 -13.5c-15.333 0 -24.666 -1.5 -27.999 -4.5s-5 -11.833 -5 -26.5c0 -24.667 3.83301 -65.667 11.5 -123s13.834 -92.333 18.501 -105c6 -15.333 13.333 -23 22 -23
c9.33301 0 15.5 -4.83301 18.5 -14.5s0.833008 -19.167 -6.5 -28.5c-8.66699 -11.333 -20.834 -15.5 -36.501 -12.5s-28.834 12.167 -39.501 27.5c-17.333 24 -34.666 108.667 -51.999 254l-5 46l-38 -6c-14.667 -2.66699 -25.167 -3.33398 -31.5 -2.00098
s-10.833 5.33301 -13.5 12c-4.66699 10.667 -2.5 20.667 6.5 30s23.167 15.666 42.5 18.999c16 2.66699 25.167 6 27.5 10s2.5 16.333 0.5 37c-3.33301 26.667 -1.33301 49.334 6 68.001s16.5 27 27.5 25s17.5 -13 19.5 -33c4 -45.333 8.33301 -72 13 -80s19 -12 43 -12z
" />
    <glyph glyph-name="u" unicode="u" horiz-adv-x="290" 
d="M43 424c12 4.66699 21.499 -1.49902 28.499 -18.499s12.833 -48.833 17.5 -95.5c7.33301 -69.333 15 -119 23 -149s18 -46 30 -48c14 -1.33301 25.667 1.66699 35 9c7.33301 6 11.333 17.167 12 33.5s-1.33301 53.833 -6 112.5c-6 90 -5 139.667 3 149
c14.667 18 25.667 18.667 33 2c9.33301 -20.667 19.333 -86 30 -196c10.667 -104.667 12.334 -163.334 5.00098 -176.001c-4.66699 -8 -14.667 -7 -30 3c-13.333 8 -31 8.33301 -53 1c-40 -14.667 -72.333 -3.66699 -97 33c-17.333 27.333 -30.5 89.5 -39.5 186.5
s-6.16699 148.167 8.5 153.5z" />
    <glyph glyph-name="v" unicode="v" horiz-adv-x="271" 
d="M48 412c11.333 0 19.002 -5.99902 23.002 -17.999s9.66699 -47.333 17 -106c10 -74 22.333 -129 37 -165c3.33301 -8.66699 6 -12 8 -10c0.666992 1.33301 10.334 39.666 29.001 114.999c21.333 96 40 145.333 56 148c4 0.666992 8.33301 -0.666016 13 -3.99902
c8.66699 -6.66699 11.667 -23.834 9 -51.501s-12.334 -75.834 -29.001 -144.501c-12 -50 -23.833 -84.667 -35.5 -104s-26.5 -29 -44.5 -29c-24.667 0 -45.834 24.333 -63.501 73s-29.167 114.334 -34.5 197.001c-2.66699 48 -3.33398 76.5 -2.00098 85.5s7 13.5 17 13.5z
" />
    <glyph glyph-name="w" unicode="w" horiz-adv-x="407" 
d="M214 281c11.333 0 18.835 -3.83203 22.502 -11.499s8.83398 -30.5 15.501 -68.5c9.33301 -54 16 -81 20 -81c4.66699 0 12.334 33.333 23.001 100c10.667 64.667 19.667 109.334 27 134.001s15.666 39 24.999 43c17.333 6.66699 27 0.333984 29 -18.999
c3.33301 -28 -10.334 -119 -41.001 -273c-8 -38 -17.667 -64.833 -29 -80.5s-25 -21.167 -41 -16.5c-16 5.33301 -35.333 36.333 -58 93c-4 10 -7 14.667 -9 14c-2.66699 -0.666992 -8.33398 -14 -17.001 -40c-8.66699 -27.333 -18.334 -45.333 -29.001 -54
s-21.5 -8 -32.5 2s-21.833 29 -32.5 57c-20.667 55.333 -36.667 119.166 -48 191.499s-12 113.5 -2 123.5c15.333 16 28.333 3 39 -39c2 -8 4 -17 6 -27c5.33301 -28.667 11.833 -59.334 19.5 -92.001s14.667 -60 21 -82s10.5 -32 12.5 -30c2.66699 2 13 29 31 81
c10.667 33.333 18.667 54.166 24 62.499s13.333 12.5 24 12.5z" />
    <glyph glyph-name="x" unicode="x" horiz-adv-x="256" 
d="M195 286c-5.33301 -14 -11.499 -29.002 -18.499 -45.002s-11.333 -25.333 -13 -28s-2.33398 -9.5 -2.00098 -20.5s2 -19.833 5 -26.5l18.5 -41c25.333 -62 30 -97.667 14 -107c-6.66699 -4.66699 -17.667 0.5 -33 15.5s-24.666 29.833 -27.999 44.5
c-5.33301 20 -12 25.667 -20 17c-6 -6 -14 -18.667 -24 -38c-18 -34 -32.833 -48.167 -44.5 -42.5s-13.167 27.834 -4.5 66.501c7.33301 29.333 15.666 55.333 24.999 78c8 20 11.167 35.5 9.5 46.5s-10.167 37.833 -25.5 80.5c-20.667 58.667 -27.667 91.334 -21 98.001
c14.667 14.667 36.334 -5 65.001 -59l22 -43c1.33301 2 9.16602 17.667 23.499 47s27 52.333 38 69s19.5 23.667 25.5 21c25.333 -4.66699 21.333 -49 -12 -133z" />
    <glyph glyph-name="y" unicode="y" horiz-adv-x="274" 
d="M142 101c17.333 0 28.834 9 34.501 27s8.5 54 8.5 108c0 68.667 5 109.667 15 123c7.33301 8.66699 12.166 13 14.499 13s7.16602 -4.33301 14.499 -13c10 -12.667 15 -61.667 15 -147c0 -108.667 -6.33301 -193 -19 -253s-33 -101.667 -61 -125
c-25.333 -22 -54 -29.333 -86 -22s-48 24.666 -48 51.999c0 10 1.33301 15.833 4 17.5s9.66699 0.5 21 -3.5c18 -6.66699 31.833 -9.5 41.5 -8.5s19.5 6.5 29.5 16.5c18 18 32.667 61.333 44 130l7 35l-34 -5c-14.667 -2.66699 -25.834 -2.5 -33.501 0.5
s-17.5 10.5 -29.5 22.5c-19.333 19.333 -31 47.333 -35 84c-4.66699 34 -5 79.833 -1 137.5s9.66699 90.834 17 99.501c6.66699 8 15.334 11.333 26.001 10c6.66699 -1.33301 11.334 -10.833 14.001 -28.5s5 -54.5 7 -110.5c2.66699 -68.667 6 -112.5 10 -131.5
s12 -28.5 24 -28.5z" />
    <glyph glyph-name="z" unicode="z" horiz-adv-x="305" 
d="M250 52c0 -12 -6.83301 -19.833 -20.5 -23.5s-42.5 -5.5 -86.5 -5.5c-50 0 -82.333 6 -97 18c-10 8.66699 -15.333 15.334 -16 20.001s2.33301 14.667 9 30c11.333 25.333 35.333 61 72 107c71.333 88.667 103.333 142 96 160c-3.33301 8.66699 -21 13.5 -53 14.5
s-55 -2.83301 -69 -11.5c-12.667 -8 -22.667 -8.33301 -30 -1c-8 8.66699 -9 19.334 -3 32.001s16.333 22 31 28c18 6.66699 44.167 10 78.5 10s58.833 -3.33301 73.5 -10c17.333 -9.33301 29 -22 35 -38c5.33301 -12.667 6.83301 -23.834 4.5 -33.501
s-9.83301 -28.167 -22.5 -55.5c-25.333 -52.667 -71 -118.334 -137 -197.001l56 -5c31.333 -2.66699 52.333 -6.66699 63 -12s16 -14.333 16 -27z" />
    <glyph glyph-name="uni0093" horiz-adv-x="302" 
d="M272 267c0 -19.333 -6.50293 -33.001 -19.5029 -41.001s-29.167 -7.66699 -48.5 1c-24.667 10.667 -39.167 31.5 -43.5 62.5s2.16699 67.833 19.5 110.5c7.33301 16.667 13.666 26.334 18.999 29.001s13.333 0.333984 24 -6.99902
c6.66699 -4 9.33398 -15.333 8.00098 -34s-5.66602 -37.667 -12.999 -57c-1.33301 -3.33301 0.333984 -7.33301 5.00098 -12s11.334 -8.33398 20.001 -11.001c11.333 -4.66699 19 -9.66699 23 -15s6 -14 6 -26zM86.9971 216.999c-27.333 0 -45 15.665 -53 46.998
s-3.33301 66.333 14 105c14 28.667 26.333 45.334 37 50.001c11.333 7.33301 21.333 6.66602 30 -2.00098c4 -2 6.16699 -6 6.5 -12s-1.16699 -12.833 -4.5 -20.5s-7 -15.167 -11 -22.5l-12 -22c-4 -7.33301 -6.66699 -12.666 -8 -15.999l25 -20
c22 -17.333 30 -36.166 24 -56.499s-22 -30.5 -48 -30.5z" />
    <glyph glyph-name="uni0094" horiz-adv-x="291" 
d="M203 237c-12.667 0 -19.668 2.83301 -21.001 8.5s1.33398 19.167 8.00098 40.5c6.66699 18 9.66699 30.333 9 37s-5.66699 15.667 -15 27c-22.667 28.667 -25.334 51.667 -8.00098 69c9.33301 9.33301 22.833 13 40.5 11s29.834 -8.66699 36.501 -20
c6.66699 -17.333 8.66699 -38.833 6 -64.5s-9.66699 -50.167 -21 -73.5s-23 -35 -35 -35zM67.999 334c-18.667 0 -30.8311 10.833 -36.498 32.5s-1.16699 40.5 13.5 56.5c12 13.333 26.333 18.5 43 15.5s29.334 -13.5 38.001 -31.5
c11.333 -22.667 16.166 -50.5 14.499 -83.5s-8.83398 -55.833 -21.501 -68.5c-14.667 -14.667 -28.334 -19 -41.001 -13c-8 3.33301 -10.333 10.333 -7 21c4.66699 16.667 8 29.167 10 37.5s3 15.333 3 21s-1.33301 9.16699 -4 10.5s-6.66699 2 -12 2z" />
    <glyph glyph-name="exclamdown" unicode="&#xa1;" horiz-adv-x="180" 
d="M30 -21c0 23.333 4.83203 77 14.499 161s16.5 130.333 20.5 139c4 10 10.167 15.167 18.5 15.5s16.5 -4.16699 24.5 -13.5c9.33301 -11.333 8.83301 -70.5 -1.5 -177.5s-21.166 -165.833 -32.499 -176.5c-7.33301 -7.33301 -12.333 -10.833 -15 -10.5
s-7.66699 4.83301 -15 13.5c-9.33301 12.667 -14 29 -14 49zM78.999 436c5.33301 14.667 10 23.999 14 27.999s11 5.33301 21 4c16 -2 26.833 -9.66699 32.5 -23s4.5 -28 -3.5 -44c-7.33301 -13.333 -17.5 -21.666 -30.5 -24.999s-23.833 0 -32.5 10s-9 26.667 -1 50z" />
    <glyph glyph-name="ordfeminine" unicode="&#xaa;" horiz-adv-x="263" 
d="M147 427c0 8.66699 -4.49902 14.332 -13.499 16.999s-17.167 0.666992 -24.5 -6c-7.33301 -7.33301 -11 -16.666 -11 -27.999c0 -5.33301 0.5 -8.83301 1.5 -10.5s3.16699 -2.16699 6.5 -1.5s8.66602 2.66699 15.999 6c16.667 7.33301 25 15 25 23zM147.001 522.998
c0 12 -6.33301 19.166 -19 21.499s-26.667 -1.16699 -42 -10.5c-14.667 -8.66699 -27.667 -12.5 -39 -11.5s-17 6.16699 -17 15.5c0 8.66699 9.66699 22 29 40c12 12.667 22.333 20.5 31 23.5s21.667 3.83301 39 2.5c26.667 -2 46.334 -13 59.001 -33s20 -52 22 -96
c1.33301 -42 6 -67.667 14 -77c9.33301 -12 11 -22.5 5 -31.5s-18 -13.167 -36 -12.5c-24.667 0 -46 -3.66699 -64 -11c-14 -6 -24.333 -8.83301 -31 -8.5s-15.334 3.5 -26.001 9.5c-34.667 18.667 -43.667 52.334 -27 101.001c15.333 42 40.333 63.333 75 64
c18 0 27 4.66699 27 14z" />
    <glyph glyph-name="questiondown" unicode="&#xbf;" horiz-adv-x="321" 
d="M97 5c0 -17.333 1.83887 -29.3291 5.50586 -35.9961s12.5 -14.334 26.5 -23.001c20.667 -12.667 42.667 -19 66 -19s40.666 6.33301 51.999 19c12.667 14 23.167 20.167 31.5 18.5s12.5 -10.834 12.5 -27.501c0 -30.667 -16.667 -51.5 -50 -62.5
s-69.833 -9.66699 -109.5 4s-67.834 36.167 -84.501 67.5c-20 38.667 -22.5 77 -7.5 115s45.5 69.667 91.5 95c41.333 22 63.666 33.667 66.999 35c6.66699 2 5.66699 13.333 -3 34c-8.66699 20 -11 35.667 -7 47c2.66699 7.33301 5.66699 11.166 9 11.499
s9.66602 -3.16699 18.999 -10.5c7.33301 -6 15 -15.167 23 -27.5s14.167 -26.333 18.5 -42s1.16602 -28.834 -9.50098 -39.501c-8.66699 -14 -33.334 -31.667 -74.001 -53c-32 -16.667 -52.833 -31.5 -62.5 -44.5s-14.5 -33.5 -14.5 -61.5zM242.006 406.004
c0 -22.667 -7.99902 -37.667 -23.999 -45c-22.667 -10 -39 -5.5 -49 13.5s-6 38.5 12 58.5c8.66699 9.33301 15.667 14.833 21 16.5s13.666 0.166992 24.999 -4.5c10 -4 15 -17 15 -39z" />
    <glyph glyph-name="Aacute" unicode="&#xc1;" horiz-adv-x="371" 
d="M102 286c0 -3.33301 17.666 -4.33301 52.999 -3c22.667 1.33301 37.167 3.33301 43.5 6s8.5 7.33398 6.5 14.001c-4.66699 14.667 -13 47.667 -25 99c-16 64 -27 96.333 -33 97c-3.33301 0.666992 -6.66602 -5 -9.99902 -17c-1.33301 -5.33301 -3 -13 -5 -23
c-20 -106.667 -30 -164.334 -30 -173.001zM315.999 83c0 -14 -5.33496 -22.999 -16.002 -26.999s-20 -0.666992 -28 10c-8 12 -24 62.333 -48 151h-129l-7 -76c-4.66699 -49.333 -9.66699 -83.666 -15 -102.999s-12.666 -30 -21.999 -32
c-5.33301 -0.666992 -9.5 1.16602 -12.5 5.49902s-5.5 12.166 -7.5 23.499c-2.66699 16 -1.66699 62.333 3 139s9.66699 130 15 160c22 122.667 40.333 198 55 226c8 16 14.833 26 20.5 30s13.834 5.33301 24.501 4c16.667 -2 30.667 -14.333 42 -37
c9.33301 -19.333 32.5 -99 69.5 -239s55.5 -218.333 55.5 -235zM292.997 769.001c17.333 12.667 32.667 9.33203 46 -10.001c6 -9.33301 2.5 -24.833 -10.5 -46.5s-29 -40.5 -48 -56.5s-33.167 -21.333 -42.5 -16c-12.667 8 -12.667 26.833 0 56.5s31 53.834 55 72.501z" />
    <glyph glyph-name="Eacute" unicode="&#xc9;" horiz-adv-x="353" 
d="M173 548c-47.333 0 -72.002 -2.33691 -74.002 -7.00391c-4 -13.333 -10 -85.666 -18 -216.999h68c64.667 0 93.334 -10.667 86.001 -32c-1.33301 -3.33301 -4 -7.33301 -8 -12c-5.33301 -6.66699 -13.166 -10.667 -23.499 -12s-28.833 -1 -55.5 1l-67 6
c6.66699 -114 16 -174.333 28 -181c10.667 -8 39.667 -13.667 87 -17c53.333 -5.33301 80 -15.333 80 -30c0 -5.33301 -3 -11.666 -9 -18.999c-7.33301 -8.66699 -26.833 -13.167 -58.5 -13.5s-65.5 3.83398 -101.5 12.501c-38 8.66699 -60.5 27 -67.5 55
s-10.167 113.333 -9.5 256c0 111.333 1 179.833 3 205.5s7.33301 42.167 16 49.5c13.333 9.33301 52 13 116 11c44 -1.33301 71.333 -3.16602 82 -5.49902s16.667 -7.5 18 -15.5c3.33301 -13.333 -1.5 -22.5 -14.5 -27.5s-38.833 -7.5 -77.5 -7.5zM241.998 708.996
c17.333 17.333 33.8311 27.667 49.498 31s25.834 -1 30.501 -13c5.33301 -14 -6.16699 -32 -34.5 -54s-50.166 -30 -65.499 -24c-10.667 4 -14.5 10.5 -11.5 19.5s13.5 22.5 31.5 40.5z" />
    <glyph glyph-name="Iacute" unicode="&#xcd;" horiz-adv-x="319" 
d="M205 528l-24.001 -0.00292969l6 -218c2.66699 -106.667 5.16699 -170.667 7.5 -192s9.16602 -36.666 20.499 -45.999c10.667 -8.66699 16.334 -14.667 17.001 -18s-3.33301 -9.33301 -12 -18c-6.66699 -7.33301 -15.667 -12 -27 -14s-31.666 -2.33301 -60.999 -1
c-46.667 2.66699 -72.667 6.66699 -78 12c-6.66699 6.66699 -5.5 14.834 3.5 24.501s21.833 16.167 38.5 19.5l28 6v453l-31 6c-22 4.66699 -38.833 11.334 -50.5 20.001s-15.5 18.334 -11.5 29.001c5.33301 11.333 12.333 15.333 21 12
c10.667 -4.66699 44.667 -8.66699 102 -12c59.333 -4.66699 91 -11.334 95 -20.001c4 -10 1.16699 -19.667 -8.5 -29s-21.5 -14 -35.5 -14zM239.999 779.997c18 12 33 7.66602 45 -13.001c4 -7.33301 4.5 -14 1.5 -20s-11.833 -16 -26.5 -30
c-18 -16 -34.333 -26.333 -49 -31s-25 -3 -31 5c-3.33301 5.33301 3 19.833 19 43.5s29.667 38.834 41 45.501z" />
    <glyph glyph-name="Ntilde" unicode="&#xd1;" horiz-adv-x="373" 
d="M53 596c14.667 0 32.333 -16.8311 53 -50.498s47.334 -89.5 80.001 -167.5l35 -81.5l30 -70.5c6.66699 -15.333 10.667 -24 12 -26c4.66699 -8 7 53.333 7 184c-0.666992 89.333 -0.166992 144.666 1.5 165.999s6.16699 32.666 13.5 33.999s13 0 17 -4
s7.83301 -13.667 11.5 -29s6.66699 -35.5 9 -60.5s5.16602 -60.833 8.49902 -107.5c14.667 -202.667 16 -310 4 -322c-6 -6 -18.667 -9.66699 -38 -11c-12 -1.33301 -21.333 0.833984 -28 6.50098s-15.667 18.834 -27 39.501c-15.333 28 -38.666 78.333 -69.999 151
c-42.667 100 -65.667 150.667 -69 152c-1.33301 1.33301 -2 0 -2 -4c0 -2.66699 1.33301 -21.334 4 -56.001c5.33301 -72 12 -139.333 20 -202c6.66699 -56 10.167 -91.333 10.5 -106s-2.83398 -25.667 -9.50098 -33c-8.66699 -9.33301 -18.5 -11.833 -29.5 -7.5
s-18.167 13.166 -21.5 26.499c-12 48.667 -23.667 150.167 -35 304.5s-13.333 240.833 -6 259.5c4.66699 10 11 15 19 15zM272.999 700.002c0 -17.333 -6.66797 -34.166 -20.001 -50.499s-27.333 -24.5 -42 -24.5c-12.667 0 -29.667 6.5 -51 19.5s-32.333 23.5 -33 31.5
c0 7.33301 -2.33301 5.66602 -7 -5.00098l-2 -4c-6 -14 -13.833 -21.333 -23.5 -22s-17.834 5.66602 -24.501 18.999c-5.33301 10 -7 22.333 -5 37s7.33301 27.667 16 39c8.66699 10.667 22.334 14.167 41.001 10.5s35.334 -13.5 50.001 -29.5l29 -29l5 27
c3.33301 16.667 10.5 26.834 21.5 30.501s21.333 0.666992 31 -9s14.5 -23.167 14.5 -40.5z" />
    <glyph glyph-name="Oacute" unicode="&#xd3;" horiz-adv-x="368" 
d="M187 489c-10 16 -16.999 28.334 -20.999 37.001c-5.33301 12 -15.333 5.66699 -30 -19c-9.33301 -15.333 -17.333 -33.333 -24 -54c-9.33301 -32 -15.833 -81.833 -19.5 -149.5s-2.16699 -114.167 4.5 -139.5c8 -29.333 16.667 -49.166 26 -59.499
s21.666 -13.5 36.999 -9.5c27.333 6 45.5 37.667 54.5 95s10.167 116.166 3.5 176.499s-17 101.166 -31 122.499zM48.001 106.001c-12.667 24.667 -18.667 75.002 -18 151.002s4.33398 131.333 11.001 166c7.33301 33.333 19.5 66.166 36.5 98.499s33.167 52.833 48.5 61.5
c21.333 10.667 39.5 13.667 54.5 9s30.167 -18.334 45.5 -41.001c22 -32 37 -69.5 45 -112.5s11 -100.167 9 -171.5c-2 -70.667 -7.83301 -120.667 -17.5 -150s-28.834 -53.333 -57.501 -72c-30 -20.667 -59.167 -25.5 -87.5 -14.5s-51.5 36.167 -69.5 75.5z
M246.001 745.003c16.667 22.667 29.333 37.501 38 44.501s18 9.83301 28 8.5c39.333 -4.66699 33.333 -33.334 -18 -86.001l-6 -6c-44.667 -44.667 -71 -57.667 -79 -39l-2 8c-1.33301 8.66699 11.667 32 39 70z" />
    <glyph glyph-name="Uacute" unicode="&#xda;" horiz-adv-x="340" 
d="M33 601c1.33301 8 4.83301 14.0029 10.5 18.0029s11.167 6.16699 16.5 6.5s14.333 0.166016 27 -0.500977c-2.66699 -76.667 -0.5 -166.334 6.5 -269.001s16.167 -167 27.5 -193c8 -18.667 19 -31 33 -37s26.333 -3.66699 37 7c22.667 21.333 40.334 120.333 53.001 297
c7.33301 103.333 15.666 160.666 24.999 171.999c6.66699 5.33301 16.334 3 29.001 -7c6.66699 -6 10.5 -17.833 11.5 -35.5s0.166992 -57.5 -2.5 -119.5c-8.66699 -198 -33.334 -317.333 -74.001 -358c-12.667 -12.667 -32.667 -19 -60 -19s-51.666 6.33301 -72.999 19
c-25.333 15.333 -42.333 43 -51 83s-14.334 114.667 -17.001 224c-3.33301 122 -3 192.667 1 212zM249 800.003c14 0 22.833 -1.49902 26.5 -4.49902s5.5 -9.83301 5.5 -20.5c0 -14.667 -12.5 -35.667 -37.5 -63s-42.167 -39 -51.5 -35
c-8.66699 3.33301 -11.667 19.166 -9 47.499s8.66699 47.833 18 58.5c9.33301 11.333 25.333 17 48 17z" />
    <glyph glyph-name="Udieresis" unicode="&#xdc;" horiz-adv-x="306" 
d="M146 -16c-19.333 0 -38.335 10.002 -57.002 30.002s-32.667 45 -42 75c-7.33301 23.333 -12.166 51.5 -14.499 84.5s-3.16602 91.833 -2.49902 176.5c0 136.667 4.33301 210.334 13 221.001c8.66699 9.33301 17.5 14.166 26.5 14.499s15.167 -3.83398 18.5 -12.501
c4 -11.333 6.66699 -86.666 8 -225.999c0.666992 -141.333 6.33398 -225 17.001 -251c7.33301 -18 14.5 -30 21.5 -36s14.333 -6.33301 22 -1s16.167 16.666 25.5 33.999c10.667 20 17 41.833 19 65.5s3.66699 83.5 5 179.5c1.33301 134.667 3.66602 206.667 6.99902 216
c4.66699 9.33301 13.667 13 27 11c16 -2.66699 26.333 -20.667 31 -54s6 -100.333 4 -201c-1.33301 -80 -3.33301 -132 -6 -156s-9.33398 -47.667 -20.001 -71c-13.333 -28.667 -29.666 -52.334 -48.999 -71.001s-37.333 -28 -54 -28zM256.998 663.002
c0 -16 -5.16699 -27.835 -15.5 -35.502s-21.833 -8.16699 -34.5 -1.5c-11.333 6.66699 -16.833 16.334 -16.5 29.001s6.83301 23.334 19.5 32.001c14 9.33301 25.333 11.833 34 7.5s13 -14.833 13 -31.5zM68.998 684c10 20 21.998 29.001 35.998 27.001
s22.5 -12.333 25.5 -31s-1.83301 -32.667 -14.5 -42c-11.333 -8 -19.666 -11.833 -24.999 -11.5s-12.666 5.16602 -21.999 14.499c-7.33301 7.33301 -11 13 -11 17s3.66699 12.667 11 26z" />
    <glyph glyph-name="aacute" unicode="&#xe1;" horiz-adv-x="335" 
d="M140 315c-14.667 0 -27.501 -31.167 -38.501 -93.5s-10.5 -100.833 1.5 -115.5c8.66699 -10.667 16.167 -15 22.5 -13s14.833 12 25.5 30s17 45.167 19 81.5s-1.66699 64.833 -11 85.5c-7.33301 16.667 -13.666 25 -18.999 25zM247.999 162
c0 -13.333 1.66992 -21.833 5.00293 -25.5s10.666 -4.83398 21.999 -3.50098c10.667 0.666992 18 -0.333008 22 -3s6.66699 -8.33398 8 -17.001c2 -13.333 -2.5 -26.833 -13.5 -40.5s-22.833 -20.5 -35.5 -20.5c-12 0 -24.333 4 -37 12c-8 4.66699 -14.5 6.5 -19.5 5.5
s-12.167 -6.16699 -21.5 -15.5c-16.667 -16 -36.334 -23.167 -59.001 -21.5s-43 11.834 -61 30.501c-12.667 13.333 -20.5 25.333 -23.5 36s-4.5 33.334 -4.5 68.001c0.666992 42.667 7.5 82 20.5 118s29.833 62 50.5 78c17.333 14 31.666 19.5 42.999 16.5
s28.333 -16.833 51 -41.5c20.667 -22.667 34.667 -46 42 -70s11 -59.333 11 -106zM180.002 437c0 8.66699 6.33203 24.332 18.999 46.999s25.334 41.667 38.001 57c16.667 18.667 32.667 20.334 48 5.00098c10 -10 12.667 -20.667 8 -32s-18.667 -28 -42 -50
c-46 -38.667 -69.667 -47.667 -71 -27z" />
    <glyph glyph-name="eacute" unicode="&#xe9;" horiz-adv-x="287" 
d="M173 302c-2 20 -9.33105 29.666 -21.998 28.999c-14 -2 -27 -15.333 -39 -40c-4.66699 -10 -8.33398 -21.333 -11.001 -34s-3.16699 -20.167 -1.5 -22.5s8.16699 -2.5 19.5 -0.5c17.333 3.33301 31.166 11.333 41.499 24s14.5 27.334 12.5 44.001zM125.002 178.999
c-11.333 0 -18.8379 -1.66797 -22.5049 -5.00098s-5.5 -9.66602 -5.5 -18.999c0 -12.667 6.5 -28 19.5 -46s24.167 -27 33.5 -27c8.66699 0 23.334 9.66699 44.001 29c32.667 27.333 51.334 34 56.001 20c1.33301 -4 2 -9.66699 2 -17
c-0.666992 -36.667 -20.167 -63.167 -58.5 -79.5s-72.166 -12.833 -101.499 10.5c-41.333 32 -62.333 82.167 -63 150.5s19.333 123.166 60 164.499c18 18 37.5 28.333 58.5 31s38.667 -1.83301 53 -13.5s25.333 -27.5 33 -47.5s6.83398 -43.333 -2.49902 -70
c-7.33301 -21.333 -21.666 -40.166 -42.999 -56.499s-42.333 -24.5 -63 -24.5zM164.997 477.998c0 10 6.83105 28.168 20.498 54.501s24.5 41.833 32.5 46.5c8 5.33301 13.833 7.66602 17.5 6.99902s8.83398 -5 15.501 -13c8.66699 -10 6.66699 -27.333 -6 -52
c-19.333 -37.333 -38.666 -59.333 -57.999 -66c-14 -2.66699 -21.333 5 -22 23z" />
    <glyph glyph-name="iacute" unicode="&#xed;" horiz-adv-x="218" 
d="M41 351c2.66699 12.667 9.66895 19.668 21.002 21.001s21.666 -3.33398 30.999 -14.001c8.66699 -11.333 11 -67.333 7 -168s-10.667 -155.667 -20 -165c-10.667 -10.667 -20.5 -13 -29.5 -7s-15.167 19 -18.5 39c-2.66699 18 -2.83398 66.5 -0.500977 145.5
s5.5 128.5 9.5 148.5zM113.002 546.001c14.667 20.667 29.501 33.5 44.501 38.5s24.833 0.833008 29.5 -12.5c6.66699 -16 -9.66602 -44.667 -48.999 -86c-22.667 -24 -38.334 -30 -47.001 -18c-9.33301 12 -5.33301 33 12 63c3.33301 5.33301 6.66602 10.333 9.99902 15z
" />
    <glyph glyph-name="ntilde" unicode="&#xf1;" horiz-adv-x="347" 
d="M177 295c-12.667 0 -27.668 -4.49805 -45.001 -13.498s-29.666 -18.833 -36.999 -29.5c-5.33301 -8 -8 -41 -8 -99c0 -37.333 -1 -61.833 -3 -73.5s-6.33301 -18.834 -13 -21.501c-10 -4.66699 -18.667 -3.33398 -26 3.99902c-8 8 -12.833 56.833 -14.5 146.5
s1.16602 141.167 8.49902 154.5c7.33301 12.667 16.333 18.167 27 16.5s17 -9.83398 19 -24.501c2 -12.667 4.33301 -19.167 7 -19.5s12.667 4.16699 30 13.5c34 17.333 67.5 19.333 100.5 6s56.833 -38.666 71.5 -75.999c16.667 -42.667 24.167 -87.167 22.5 -133.5
s-12.167 -73.166 -31.5 -80.499c-12.667 -4.66699 -22.167 0.166016 -28.5 14.499s-11.166 42.5 -14.499 84.5c-4 48 -10.833 81.833 -20.5 101.5s-24.5 29.5 -44.5 29.5zM204.999 519.002c12 22.667 27.001 25.002 45.001 7.00195
c8.66699 -9.33301 12.334 -21.5 11.001 -36.5s-7.66602 -28.167 -18.999 -39.5c-10 -10 -22 -15.333 -36 -16s-36 3.33301 -66 12c-8 2.66699 -13.833 2.5 -17.5 -0.5s-6.83398 -9.5 -9.50098 -19.5c-4.66699 -16.667 -12.667 -24 -24 -22
c-10.667 2 -16.834 12.333 -18.501 31s2.16602 35.667 11.499 51c7.33301 11.333 14.5 18.166 21.5 20.499s21.167 2.5 42.5 0.5c20 -2 33.833 -2.33301 41.5 -1s13.5 5.66602 17.5 12.999z" />
    <glyph glyph-name="oacute" unicode="&#xf3;" horiz-adv-x="332" 
d="M171 353c-17.333 33.333 -33.666 38 -48.999 14c-16.667 -26 -25.667 -73.333 -27 -142c-1.33301 -38 -0.833008 -63 1.5 -75s8.16602 -22.333 17.499 -31c8.66699 -8.66699 15.334 -13.667 20.001 -15s10 0.666992 16 6c17.333 14.667 28.666 52 33.999 112
s1 103.667 -13 131zM96 428c30.667 26 62 26.335 94 1.00195c29.333 -23.333 49 -62.833 59 -118.5s7 -110.834 -9 -165.501c-14.667 -50 -39 -82.167 -73 -96.5s-66.333 -6.5 -97 23.5c-18 18 -29.667 39.167 -35 63.5s-6.33301 62.5 -3 114.5
c6 89.333 27.333 148.666 64 177.999zM271 616.002c6.66699 0 13.5 -4.49902 20.5 -13.499s10.5 -17.833 10.5 -26.5c0 -10 -9.83301 -23.833 -29.5 -41.5s-33.834 -25.167 -42.501 -22.5c-10.667 3.33301 -15.167 14.166 -13.5 32.499s8.83398 33.833 21.501 46.5
c16.667 16.667 27.667 25 33 25z" />
    <glyph glyph-name="uacute" unicode="&#xfa;" horiz-adv-x="349" 
d="M127 111c13.333 0 25.998 14.501 37.998 43.501s21.333 67.833 28 116.5c5.33301 33.333 10.833 57 16.5 71s13.167 21 22.5 21s16.5 -9 21.5 -27s10.167 -52.667 15.5 -104c5.33301 -50 9.66602 -82.667 12.999 -98s9.33301 -26 18 -32
c18.667 -12.667 23.834 -27.834 15.501 -45.501s-23.833 -24.834 -46.5 -21.501c-18 2 -35.333 23.333 -52 64c-0.666992 0.666992 -3.66699 -1.33301 -9 -6s-12.666 -11.667 -21.999 -21c-30 -29.333 -61.333 -36.333 -94 -21s-52.667 46.666 -60 93.999
c-4.66699 28.667 -3.66699 73.667 3 135s14.334 97 23.001 107c8 8.66699 13.833 13.334 17.5 14.001s9.5 -2.66602 17.5 -9.99902c6.66699 -6.66699 8.66699 -46.667 6 -120c-3.33301 -63.333 -3 -105.833 1 -127.5s13 -32.5 27 -32.5zM194.998 528.001
c21.333 24.667 38.5 39.666 51.5 44.999s24.167 2 33.5 -10c17.333 -19.333 2.33301 -45 -45 -77c-38 -26 -61.5 -34.167 -70.5 -24.5s1.16699 31.834 30.5 66.501z" />
    <glyph glyph-name="udieresis" unicode="&#xfc;" horiz-adv-x="335" 
d="M224 311c0 19.333 4.99609 33.667 14.9961 43s20.667 10 32 2c6.66699 -4 11.5 -14.167 14.5 -30.5s5.83301 -47.833 8.5 -94.5c4 -48 7.33301 -97.667 10 -149c1.33301 -14.667 0.833008 -24 -1.5 -28s-8.83301 -6 -19.5 -6c-15.333 0 -28.333 9.66699 -39 29
c-2.66699 4.66699 -5.16699 9.83398 -7.5 15.501s-4.16602 9.16699 -5.49902 10.5s-2.33301 3.16602 -3 5.49902s-2.16699 2.66602 -4.5 0.999023s-4.16602 -2.83398 -5.49902 -3.50098s-4.5 -3.16699 -9.5 -7.5l-13.5 -11.5c-30.667 -25.333 -63.167 -30.833 -97.5 -16.5
s-55.5 42.166 -63.5 83.499c-5.33301 26.667 -6.16602 66.5 -2.49902 119.5s9.5 83.833 17.5 92.5c8 10 14.333 15.333 19 16s10.667 -2.66602 18 -9.99902s9 -37.666 5 -90.999c-2.66699 -42 -1.16699 -77 4.5 -105s14.834 -44.667 27.501 -50
c18.667 -7.33301 40.167 11.334 64.5 56.001s36.5 87.667 36.5 129zM229.996 536.001c16.667 24 33.668 27.3311 51.001 9.99805c16 -16 16.667 -35.167 2 -57.5s-31.667 -28.166 -51 -17.499c-22.667 12.667 -23.334 34.334 -2.00098 65.001zM87.9971 547.999
c12 12 21.1699 18.001 27.5029 18.001s15.166 -6 26.499 -18c8.66699 -8.66699 13 -15.334 13 -20.001s-4 -12.667 -12 -24c-16.667 -24 -33.667 -29.667 -51 -17c-10.667 7.33301 -16.334 17 -17.001 29s3.66602 22.667 12.999 32z" />
    <glyph glyph-name=".null" horiz-adv-x="0" 
 />
    <glyph glyph-name="nonmarkingreturn" horiz-adv-x="333" 
 />
    </font>
</defs>
</svg>
